<svg xmlns="http://www.w3.org/2000/svg" width="36.855" height="36.855" viewBox="0 0 36.855 36.855"><defs><style>.a{fill:#398e92;}.b{fill:#fff;}</style></defs><g transform="translate(-557.162 -781.314)"><rect class="a" width="36.855" height="36.855" transform="translate(557.162 781.314)"/><g transform="translate(563.463 790)"><g transform="translate(4.537)"><circle class="b" cx="1.754" cy="1.754" r="1.754" transform="translate(4.253 3.386)"/><path class="b" d="M19.409,1.468l.537-.8L19,.275,12.985,2.33l.407,1.193Z" transform="translate(-10.052 -0.18)"/><path class="b" d="M42.046.946,41.859,0l-.945.391L38.114,6.1l1.132.556Z" transform="translate(-26.457)"/><path class="b" d="M18.864,20.495c-2.038-1.371-4.071-2.766-6.16-4.058a1.615,1.615,0,0,0-.035-.534,25.248,25.248,0,0,1-.441-2.654c1.116-.053,2.231-.142,3.348-.2a1.115,1.115,0,0,0,.979-1.487l.253-.513.41.2.193-.394-1.493-.733-.194.394.362.177-.129.264a1.089,1.089,0,0,0-.366-.04c-1.619.086-3.234.236-4.858.245a1.582,1.582,0,0,0-.525.026l-2.415-.6L6.732,7.358l.411-.14.148.432.415-.142L7.167,5.935l-.414.142.129.381-.53.181C5.648,6,4.233,6.561,4.595,7.665L5.888,11.61c.274.839.894.926,1.638,1.11l1.409.348a29.467,29.467,0,0,0,.519,3.379L6.8,16.971a1.063,1.063,0,0,0-.753,1.3c.406,1.192.786,2.393,1.167,3.593.414,1.305,2.473.759,2.057-.552q-.4-1.254-.808-2.507l2.7-.531a1.073,1.073,0,0,0,.3-.106c2.152,1.322,4.24,2.759,6.336,4.169C18.941,23.107,20,21.257,18.864,20.495Z" transform="translate(-4.537 -3.874)"/></g></g></g></svg>