<svg xmlns="http://www.w3.org/2000/svg" width="36.855" height="36.855" viewBox="0 0 36.855 36.855"><defs><style>.a{fill:#398e92;}.b{fill:#fff;}</style></defs><g transform="translate(0 0.001)"><rect class="a" width="36.855" height="36.855" transform="translate(0 0)"/><g transform="translate(7.431 9.165)"><path class="b" d="M21.793,36.548a17.611,17.611,0,0,0-2.631-6.2,13.614,13.614,0,0,0-1.981-2.361,3.709,3.709,0,0,0-2.25-1.307H14.9c-1.385.059-1.851,1.688-2.073,2.8a14.372,14.372,0,0,0-.255,2.038,2.866,2.866,0,0,1-.61-1.952V26.729H10.152v2.839a2.858,2.858,0,0,1-.61,1.952,14.724,14.724,0,0,0-.255-2.038c-.222-1.116-.688-2.744-2.073-2.8H7.183a3.684,3.684,0,0,0-2.25,1.307,13.527,13.527,0,0,0-1.981,2.361,17.53,17.53,0,0,0-2.633,6.2C.014,38.1-.655,41.971,1.8,42.1c1.423.076,2.7-1.137,3.881-1.749a7.44,7.44,0,0,0,2.586-1.882A7.193,7.193,0,0,0,9.381,35c.061-.44.109-.884.142-1.328a3.891,3.891,0,0,0,.813-.477,3.81,3.81,0,0,0,.721-.726,3.676,3.676,0,0,0,.721.726,3.889,3.889,0,0,0,.813.477c.031.444.078.889.142,1.328a7.218,7.218,0,0,0,1.118,3.475,7.388,7.388,0,0,0,2.586,1.882c1.184.612,2.461,1.825,3.881,1.749C22.767,41.971,22.1,38.1,21.793,36.548Z" transform="translate(0 -23.774)"/><path class="b" d="M58.3,12.5V11.226a.708.708,0,0,0-.709-.709H57.2a.708.708,0,0,0-.709.709V12.5H58.3Z" transform="translate(-46.334 -10.517)"/></g></g></svg>