<svg xmlns="http://www.w3.org/2000/svg" width="28.764" height="28.764" viewBox="0 0 28.764 28.764"><defs><style>.a{fill:#b9e462;}.b{fill:#658722;}</style></defs><g transform="translate(-652.043 -669.93)"><rect class="a" width="28.763" height="28.763" transform="translate(652.043 669.93)"/><g transform="translate(657.842 677.082)"><path class="b" d="M17.008,34.381a13.744,13.744,0,0,0-2.053-4.839A10.625,10.625,0,0,0,13.409,27.7a2.894,2.894,0,0,0-1.756-1.02h-.024c-1.081.046-1.444,1.317-1.618,2.188a11.216,11.216,0,0,0-.2,1.59,2.237,2.237,0,0,1-.476-1.524V26.718H7.923v2.216a2.23,2.23,0,0,1-.476,1.524,11.491,11.491,0,0,0-.2-1.59C7.074,28,6.711,26.726,5.63,26.679H5.606A2.875,2.875,0,0,0,3.849,27.7,10.557,10.557,0,0,0,2.3,29.542,13.68,13.68,0,0,0,.249,34.381C.011,35.6-.511,38.613,1.4,38.716c1.111.059,2.1-.887,3.029-1.365a5.806,5.806,0,0,0,2.018-1.468,5.614,5.614,0,0,0,.873-2.712c.048-.343.085-.69.111-1.037a3.036,3.036,0,0,0,.635-.373,2.974,2.974,0,0,0,.563-.566,2.869,2.869,0,0,0,.563.566,3.035,3.035,0,0,0,.635.373c.024.347.061.694.111,1.037a5.633,5.633,0,0,0,.873,2.712,5.766,5.766,0,0,0,2.018,1.468c.924.478,1.92,1.424,3.029,1.365C17.768,38.613,17.246,35.6,17.008,34.381Z" transform="translate(0 -24.412)"/><path class="b" d="M57.9,12.067v-1a.553.553,0,0,0-.553-.553h-.306a.553.553,0,0,0-.553.553v1H57.9Z" transform="translate(-48.563 -10.517)"/></g></g></svg>