<svg xmlns="http://www.w3.org/2000/svg" width="28.76" height="28.76" viewBox="0 0 28.76 28.76"><defs><style>.a{fill:#efefef;}.b{fill:#979797;}</style></defs><g transform="translate(-818.262 -554.314)"><rect class="a" width="28.76" height="28.76" transform="translate(818.262 554.314)"/><g transform="translate(825.368 563.001)"><path class="b" d="M.125,210.222a.423.423,0,0,0,0,.6l1.811,1.811a.423.423,0,0,0,.6,0l2.418-2.417L2.542,207.8Zm0,0" transform="translate(-0.001 -201.949)"/><path class="b" d="M114.84,136.345h-.483v-.483a.423.423,0,0,0-.423-.423h-.483v-.483a.423.423,0,0,0-.722-.3L111.387,136l2.409,2.409,1.343-1.343a.423.423,0,0,0-.3-.721Zm0,0" transform="translate(-108.248 -130.742)"/><path class="b" d="M285.57,154.631l-3.906-3.906a.422.422,0,0,0-.3-.124h-.905a.423.423,0,0,0-.423.423v.483h-.483a.423.423,0,0,0-.423.423v.905a.423.423,0,0,0,.124.3l3.906,3.906a.423.423,0,0,0,.6,0l1.811-1.811A.423.423,0,0,0,285.57,154.631Zm0,0" transform="translate(-271.266 -146.358)"/><path class="b" d="M161.241,49.377a.423.423,0,0,0,.6-.6l-.453-.453a.423.423,0,0,0-.6.6Zm0,0" transform="translate(-156.137 -46.844)"/><path class="b" d="M305.987,49.377l.453-.453a.423.423,0,0,0-.6-.6l-.453.453a.423.423,0,0,0,.6.6Zm0,0" transform="translate(-296.663 -46.844)"/><path class="b" d="M241.423,0A.423.423,0,0,0,241,.423v.905a.423.423,0,1,0,.845,0V.423A.423.423,0,0,0,241.423,0Zm0,0" transform="translate(-234.209)"/></g></g></svg>