<svg xmlns="http://www.w3.org/2000/svg" width="36.855" height="36.855" viewBox="0 0 36.855 36.855"><defs><style>.a{fill:#398e92;}.b{fill:#fff;}</style></defs><g transform="translate(-653.162 -781.314)"><rect class="a" width="36.855" height="36.855" transform="translate(653.162 781.314)"/><g transform="translate(662.258 792.439)"><path class="b" d="M.159,210.906a.543.543,0,0,0,0,.767L2.482,214a.542.542,0,0,0,.767,0l3.1-3.1L3.26,207.8Zm0,0" transform="translate(0 -200.294)"/><path class="b" d="M115.816,136.856H115.2v-.62a.542.542,0,0,0-.542-.542h-.619v-.619a.542.542,0,0,0-.926-.383l-1.723,1.723,3.09,3.089,1.723-1.723a.542.542,0,0,0-.383-.925Zm0,0" transform="translate(-107.36 -129.671)"/><path class="b" d="M287.39,155.77l-5.01-5.01A.542.542,0,0,0,282,150.6h-1.161a.542.542,0,0,0-.542.542v.619h-.619a.542.542,0,0,0-.542.542v1.161a.542.542,0,0,0,.159.383l5.01,5.01a.542.542,0,0,0,.767,0l2.323-2.323A.542.542,0,0,0,287.39,155.77Zm0,0" transform="translate(-269.042 -145.158)"/><path class="b" d="M161.4,49.708a.542.542,0,0,0,.767-.767l-.581-.581a.542.542,0,1,0-.767.767Zm0,0" transform="translate(-154.856 -46.46)"/><path class="b" d="M306.191,49.708l.581-.581a.542.542,0,0,0-.767-.767l-.581.581a.542.542,0,1,0,.767.767Zm0,0" transform="translate(-294.231 -46.46)"/><path class="b" d="M241.542,0A.542.542,0,0,0,241,.542V1.7a.542.542,0,1,0,1.084,0V.542A.542.542,0,0,0,241.542,0Zm0,0" transform="translate(-232.288)"/></g></g></svg>