<svg xmlns="http://www.w3.org/2000/svg" width="36.855" height="36.855" viewBox="0 0 36.855 36.855"><defs><style>.a{fill:#398e92;}.b{fill:#fff;}</style></defs><g transform="translate(-0.001 0)"><rect class="a" width="36.855" height="36.855"/><g transform="translate(8.01 13.746)"><path class="b" d="M21.805,29.362a3.719,3.719,0,0,0-2.316-1.28,7.294,7.294,0,0,1-.961-1.417c-.036-.278-.163-.425-.751.086a2.645,2.645,0,0,1-.5.33l-.715-.822a1.07,1.07,0,0,0-.444-1.356l-.991-.579a1.073,1.073,0,0,0-1.62.872h-.494a1.191,1.191,0,0,0-2.33.293l-.539.175a2.78,2.78,0,0,1-.1-.682c0-.779-.194-.779-.428-.623a9.411,9.411,0,0,1-1.9.214v0a4.257,4.257,0,0,0-6.877,2.9l-.023.031c-.057.079-.122.167-.186.264l-.174.31c-.06.112-.109.239-.167.368s-.095.276-.144.423A4.206,4.206,0,0,0,0,29.866a4.147,4.147,0,0,0,.116,1.1,4.312,4.312,0,0,0,.435,1.09A4.477,4.477,0,0,0,1.3,33l.224.187a2.408,2.408,0,0,0,.239.176,3.989,3.989,0,0,0,.519.305,4.156,4.156,0,0,0,1.084.345,3.9,3.9,0,0,0,1.05.034,3.645,3.645,0,0,0,.7-.133l-.048.03.442.274.108-.476.475.209-.015-.475.124-.092.375.191L6.593,33c.055-.07.1-.135.129-.18.048-.074.071-.114.071-.114l-.121.06c-.08.037-.18.109-.323.173-.072.032-.144.076-.227.116s-.175.077-.271.119a5.318,5.318,0,0,1-.658.229,3.511,3.511,0,0,1-.808.1,3.343,3.343,0,0,1-.89-.11,3.492,3.492,0,0,1-.871-.367,3.35,3.35,0,0,1-.383-.274,3.917,3.917,0,0,1-.36-.337,3.626,3.626,0,0,1-.535-.784,3.365,3.365,0,0,1-.276-.865,3.141,3.141,0,0,1-.028-.84,3.3,3.3,0,0,1,.15-.731c.044-.107.076-.213.122-.307s.088-.185.136-.264l.139-.22.123-.16.051-.069.066-.071.106-.114.088-.095-.031-.028a3.094,3.094,0,0,1,6.188.057h.658l0,.012h1.713v-1.2s-.084-.162-.183-.406l.49-.159a1.189,1.189,0,0,0,2.156-.272h.7a1.077,1.077,0,0,0,.325.293l.991.579a1.073,1.073,0,0,0,1.063.014l.512.589c-.279.1-.483.148-.483.148l-.9.787.808.928c-.032.035-.059.073-.089.109l-.429-.011.128.406c-.015.023-.032.045-.047.068l-.45.052.215.341c-.036.068-.069.138-.1.207l-.342.02.189.349a3.742,3.742,0,0,0,.971,4.113,4.063,4.063,0,0,0,5.516-.021l0-.011A4.043,4.043,0,0,0,21.805,29.362ZM1.328,27.884a.195.195,0,1,1,.194-.195A.195.195,0,0,1,1.328,27.884Zm7.787-2.472a.233.233,0,1,1,.233.233A.233.233,0,0,1,9.115,25.411ZM9.678,26.9a.233.233,0,1,1,.233-.233A.233.233,0,0,1,9.678,26.9Zm2.2-.852a.5.5,0,1,1,.352-.847h-.352v.7h.352A.5.5,0,0,1,11.879,26.044Zm3.507.121-.7-.411V25.2h-.47a.364.364,0,0,1,.047-.131.379.379,0,0,1,.519-.136l.991.579a.363.363,0,0,1,.185.288l-.409.356.052.059A.366.366,0,0,1,15.386,26.165Zm2.375,1.22a.233.233,0,1,1-.023.329c0-.005-.006-.012-.01-.017l.051-.045-.1-.112A.233.233,0,0,1,17.761,27.385Zm-1.16.573a.234.234,0,1,1-.023.329A.234.234,0,0,1,16.6,27.958Zm.272,6.08a2.816,2.816,0,1,1,4.051-3.91,2.818,2.818,0,0,1-4.051,3.91Zm4.3.683a.179.179,0,1,1,.018-.253A.179.179,0,0,1,21.169,34.722Z" transform="translate(0.001 -23.659)"/></g></g></svg>