<svg xmlns="http://www.w3.org/2000/svg" width="28.764" height="28.764" viewBox="0 0 28.764 28.764"><defs><style>.a{fill:#ffda65;}.b{fill:#816c2a;}</style></defs><g transform="translate(-0.151 0.246)"><path class="a" d="M0,0H28.763V28.763H0Z" transform="translate(0.152 -0.246)"/><g transform="translate(5.151 9.754)"><path class="b" d="M17.017,28.11a2.9,2.9,0,0,0-1.808-1,5.692,5.692,0,0,1-.75-1.106c-.028-.217-.128-.332-.586.067a2.064,2.064,0,0,1-.386.257l-.558-.641a.835.835,0,0,0-.347-1.058l-.774-.452a.838.838,0,0,0-1.264.681h-.385a.929.929,0,0,0-1.818.229l-.421.136a2.169,2.169,0,0,1-.078-.532c0-.608-.152-.608-.334-.486a7.344,7.344,0,0,1-1.484.167v0A3.322,3.322,0,0,0,.659,26.643l-.018.025c-.045.062-.1.13-.145.206l-.136.242C.313,27.2.275,27.3.23,27.4s-.074.215-.112.33A3.282,3.282,0,0,0,0,28.5a3.237,3.237,0,0,0,.09.858,3.365,3.365,0,0,0,.34.851,3.494,3.494,0,0,0,.582.734l.175.146a1.879,1.879,0,0,0,.187.137,3.112,3.112,0,0,0,.405.238,3.244,3.244,0,0,0,.846.269,3.041,3.041,0,0,0,.82.026,2.844,2.844,0,0,0,.544-.1l-.037.023L4.3,31.9l.084-.371.371.163-.012-.37.1-.072.293.149.015-.446c.043-.055.075-.106.1-.141.038-.057.056-.089.056-.089l-.095.047c-.062.029-.14.085-.252.135-.056.025-.113.059-.177.09s-.137.06-.211.093a4.15,4.15,0,0,1-.514.179,2.74,2.74,0,0,1-.63.078,2.609,2.609,0,0,1-.695-.086,2.726,2.726,0,0,1-.68-.286,2.615,2.615,0,0,1-.3-.214,3.057,3.057,0,0,1-.281-.263,2.83,2.83,0,0,1-.417-.612,2.626,2.626,0,0,1-.215-.675,2.451,2.451,0,0,1-.022-.656,2.577,2.577,0,0,1,.117-.571c.035-.083.06-.166.1-.239s.069-.144.106-.206l.108-.172.1-.125.04-.054.051-.056.083-.089.069-.074-.024-.022a2.415,2.415,0,0,1,4.829.045H6.9L6.9,27H8.238V26.06s-.066-.127-.143-.317l.382-.124a.928.928,0,0,0,1.683-.212H10.7a.84.84,0,0,0,.253.229l.773.452a.837.837,0,0,0,.829.011l.4.46c-.218.077-.377.115-.377.115l-.706.615.63.724c-.025.028-.046.057-.07.085l-.335-.008.1.317-.036.053-.351.041.168.266c-.028.053-.054.108-.079.162l-.267.016.148.272a2.92,2.92,0,0,0,.758,3.209,3.171,3.171,0,0,0,4.3-.016V32.4A3.156,3.156,0,0,0,17.017,28.11ZM1.037,26.956a.152.152,0,1,1,.152-.152A.152.152,0,0,1,1.037,26.956Zm6.077-1.929a.182.182,0,1,1,.182.182A.182.182,0,0,1,7.114,25.026Zm.439,1.159A.182.182,0,1,1,7.735,26,.182.182,0,0,1,7.553,26.185Zm1.718-.665a.387.387,0,1,1,.274-.661H9.271v.547h.274A.387.387,0,0,1,9.271,25.52Zm2.737.095-.549-.321v-.435h-.367a.284.284,0,0,1,.036-.1.3.3,0,0,1,.405-.106l.774.452a.284.284,0,0,1,.144.225l-.319.278.04.046A.286.286,0,0,1,12.008,25.615Zm1.854.952a.182.182,0,1,1-.018.257s0-.009-.007-.013l.04-.035-.076-.087A.182.182,0,0,1,13.861,26.567Zm-.905.448a.182.182,0,1,1-.018.257A.183.183,0,0,1,12.956,27.014Zm.212,4.745a2.2,2.2,0,1,1,3.162-3.051,2.2,2.2,0,0,1-3.162,3.051Zm3.353.533a.14.14,0,1,1,.014-.2A.14.14,0,0,1,16.521,32.293Z" transform="translate(0.001 -23.659)"/></g></g></svg>