<svg xmlns="http://www.w3.org/2000/svg" width="28.76" height="28.76" viewBox="0 0 28.76 28.76"><defs><style>.a{fill:#efefef;}.b{fill:#979797;}</style></defs><g transform="translate(-818.262 -592.516)"><rect class="a" width="28.76" height="28.76" transform="translate(818.262 592.517)"/><g transform="translate(825.946 600.518)"><g transform="translate(0 0)"><path class="b" d="M19.753,10.71h-.186a.379.379,0,0,0-.394.361V12.6h.974V11.071A.379.379,0,0,0,19.753,10.71Z" transform="translate(-14.108 -8.033)"/><path class="b" d="M29.635,10.71h-.186a.379.379,0,0,0-.394.361V12.6h.974V11.071A.38.38,0,0,0,29.635,10.71Z" transform="translate(-21.38 -8.033)"/><path class="b" d="M6.857.577A6.858,6.858,0,0,0,4.725,13.953a.66.66,0,1,0,.41-1.255,5.559,5.559,0,0,1-2.2-1.358,5.536,5.536,0,1,1,9.46-3.905,5.5,5.5,0,0,1-1.62,3.914,4.266,4.266,0,0,1-1.994,1.084.906.906,0,0,1-.723-.3,3.836,3.836,0,0,1-.572-2.335A2.167,2.167,0,0,0,9.543,7.63V5.575H4.171V7.63A2.168,2.168,0,0,0,6.162,9.79a4.986,4.986,0,0,0,.908,3.219,2.228,2.228,0,0,0,1.708.744,5.408,5.408,0,0,0,2.893-1.437l.021-.02A6.858,6.858,0,0,0,6.857.577Z" transform="translate(0 -0.577)"/></g></g></g></svg>