<svg xmlns="http://www.w3.org/2000/svg" width="36.855" height="36.855" viewBox="0 0 36.855 36.855"><defs><style>.a{fill:#398e92;}.b{fill:#fff;}</style></defs><g transform="translate(-751.162 -781.314)"><rect class="a" width="36.855" height="36.855" transform="translate(751.162 781.314)"/><g transform="translate(761 790.982)"><g transform="translate(0 0.577)"><path class="b" d="M19.916,10.71h-.238a.486.486,0,0,0-.505.464v1.963h1.249V11.174A.486.486,0,0,0,19.916,10.71Z" transform="translate(-12.676 -7.277)"/><path class="b" d="M29.8,10.71H29.56a.486.486,0,0,0-.5.464v1.963H30.3V11.174A.487.487,0,0,0,29.8,10.71Z" transform="translate(-19.21 -7.277)"/><path class="b" d="M8.8.577A8.8,8.8,0,0,0,6.061,17.734a.847.847,0,1,0,.526-1.61,7.13,7.13,0,0,1-2.825-1.742A7.1,7.1,0,1,1,15.9,9.372a7.054,7.054,0,0,1-2.078,5.02,5.472,5.472,0,0,1-2.558,1.391,1.162,1.162,0,0,1-.927-.39,4.92,4.92,0,0,1-.734-3A2.78,2.78,0,0,0,12.24,9.624V6.988H5.35V9.624A2.781,2.781,0,0,0,7.9,12.394a6.4,6.4,0,0,0,1.165,4.129,2.858,2.858,0,0,0,2.191.955c1.639,0,3.5-1.655,3.711-1.843L15,15.609A8.8,8.8,0,0,0,8.8.577Z" transform="translate(0 -0.577)"/></g></g></g></svg>