<svg xmlns="http://www.w3.org/2000/svg" width="44.494" height="36.889" viewBox="0 0 44.494 36.889"><defs><style>.a{fill:#fff;}</style></defs><g transform="translate(0 0.001)"><path class="a" d="M43.853,46.538a35.437,35.437,0,0,0-5.294-12.476,27.394,27.394,0,0,0-3.986-4.752c-1.161-1.1-2.806-2.664-4.528-2.63h-.062c-2.787.119-3.724,3.4-4.171,5.641a28.919,28.919,0,0,0-.514,4.1,5.768,5.768,0,0,1-1.227-3.929V26.78H20.428v5.712A5.751,5.751,0,0,1,19.2,36.421a29.628,29.628,0,0,0-.514-4.1C18.24,30.076,17.3,26.8,14.516,26.68h-.062c-1.727-.038-3.372,1.527-4.528,2.63A27.22,27.22,0,0,0,5.94,34.062a35.274,35.274,0,0,0-5.3,12.476c-.614,3.13-1.96,10.911,2.973,11.178,2.863.152,5.427-2.288,7.81-3.52a14.971,14.971,0,0,0,5.2-3.786c1.527-1.974,1.912-4.59,2.25-6.992.124-.885.219-1.779.285-2.673a7.83,7.83,0,0,0,1.636-.961,7.667,7.667,0,0,0,1.451-1.46,7.4,7.4,0,0,0,1.451,1.46,7.825,7.825,0,0,0,1.636.961c.062.894.157,1.788.285,2.673.338,2.4.728,5.018,2.25,6.992a14.867,14.867,0,0,0,5.2,3.786c2.383,1.232,4.951,3.672,7.81,3.52C45.813,57.449,44.467,49.668,43.853,46.538Z" transform="translate(0 -20.834)"/><path class="a" d="M60.129,14.513V11.944A1.425,1.425,0,0,0,58.7,10.517h-.79a1.425,1.425,0,0,0-1.427,1.427v2.568h3.643Z" transform="translate(-36.058 -10.517)"/></g></svg>