<svg xmlns="http://www.w3.org/2000/svg" width="28.764" height="28.764" viewBox="0 0 28.764 28.764"><defs><style>.a{fill:#b9e462;}.b{fill:#658722;}</style></defs><g transform="translate(-0.001)"><rect class="a" width="28.763" height="28.763" transform="translate(0)"/><g transform="translate(9.853 6.07)"><path class="b" d="M186.692,2.708a1.262,1.262,0,0,0,.926-.427,1.313,1.313,0,0,0,.356-.962,1.351,1.351,0,0,0-.41-.944A1.227,1.227,0,0,0,186.621,0a1.262,1.262,0,0,0-.926.427,1.38,1.38,0,0,0-.374.962,1.259,1.259,0,0,0,.41.944A1.282,1.282,0,0,0,186.692,2.708Z" transform="translate(-182.721 0)"/><path class="b" d="M120.8,88.725l-1.959-1.068-1.6-2.564a1.416,1.416,0,0,0-1.14-.57,1.31,1.31,0,0,0-.89.392l-2.422,2.458a.784.784,0,0,0-.142.321l-.321,2.742v.071a.608.608,0,0,0,.605.605.527.527,0,0,0,.41-.178.768.768,0,0,0,.2-.392l.249-2.351.855-.855-.784,6.553-1.389,3.1a1.247,1.247,0,0,0-.071.392.9.9,0,0,0,.267.659.787.787,0,0,0,.659.231.824.824,0,0,0,.784-.5l1.5-3.348a.407.407,0,0,1,.036-.125q.036-.089.071-.16A.316.316,0,0,0,115.74,94l.178-1.6,1.531,5.271a.84.84,0,0,0,.89.605.854.854,0,0,0,.623-.267.9.9,0,0,0,.267-.659.291.291,0,0,0-.018-.089.294.294,0,0,1-.018-.089l-2.137-7.3.249-2.386.605.962a.635.635,0,0,0,.178.178l2.1,1.175a1.167,1.167,0,0,0,.285.071.558.558,0,0,0,.427-.2.644.644,0,0,0,.178-.445A.558.558,0,0,0,120.8,88.725Z" transform="translate(-112.321 -81.512)"/></g></g></svg>