<svg xmlns="http://www.w3.org/2000/svg" width="36.855" height="36.855" viewBox="0 0 36.855 36.855"><defs><style>.a{fill:#398e92;}.b{fill:#f5f5f5;}</style></defs><g transform="translate(0.001 0.001)"><rect class="a" width="36.855" height="36.855" transform="translate(0)"/><g transform="translate(12.625 7.778)"><path class="b" d="M187.078,3.47a1.618,1.618,0,0,0,1.187-.548,1.683,1.683,0,0,0,.456-1.232A1.731,1.731,0,0,0,188.2.48,1.572,1.572,0,0,0,186.987,0,1.617,1.617,0,0,0,185.8.549a1.768,1.768,0,0,0-.479,1.232,1.613,1.613,0,0,0,.525,1.209A1.643,1.643,0,0,0,187.078,3.47Z" transform="translate(-181.989 0)"/><path class="b" d="M123.182,89.907l-2.51-1.369-2.054-3.286a1.815,1.815,0,0,0-1.46-.73,1.679,1.679,0,0,0-1.141.5l-3.1,3.149a1,1,0,0,0-.183.411l-.411,3.514v.091a.779.779,0,0,0,.776.776.675.675,0,0,0,.525-.228.985.985,0,0,0,.251-.5l.319-3.012,1.1-1.1-1,8.4-1.78,3.97a1.6,1.6,0,0,0-.091.5,1.148,1.148,0,0,0,.342.844,1.008,1.008,0,0,0,.844.3,1.056,1.056,0,0,0,1-.639l1.917-4.29a.521.521,0,0,1,.046-.16q.046-.114.091-.205a.406.406,0,0,0,.046-.183l.228-2.054,1.962,6.754a1.077,1.077,0,0,0,1.141.776,1.094,1.094,0,0,0,.8-.342,1.148,1.148,0,0,0,.342-.844.373.373,0,0,0-.023-.114.376.376,0,0,1-.023-.114l-2.738-9.356.319-3.058.776,1.232a.814.814,0,0,0,.228.228l2.693,1.506a1.5,1.5,0,0,0,.365.091.715.715,0,0,0,.548-.251.825.825,0,0,0,.228-.57A.715.715,0,0,0,123.182,89.907Z" transform="translate(-112.321 -80.665)"/></g></g></svg>