<svg xmlns="http://www.w3.org/2000/svg" width="15" height="15" viewBox="0 0 15 15"><g transform="translate(0 0)"><path d="M15.012,1.625h-.507V1.132a1.237,1.237,0,0,0-2.465,0v.493H10.776V1.132a1.237,1.237,0,0,0-2.465,0v.493H7.047V1.132A1.186,1.186,0,0,0,5.815,0,1.186,1.186,0,0,0,4.583,1.132v.493H3.936A1.867,1.867,0,0,0,1.974,3.374v9.877A1.867,1.867,0,0,0,3.936,15H15.012a1.867,1.867,0,0,0,1.962-1.749V3.374A1.867,1.867,0,0,0,15.012,1.625Zm-2.279-.493a.541.541,0,0,1,1.08,0V3.147a.541.541,0,0,1-1.08,0ZM9,1.132a.541.541,0,0,1,1.08,0V3.147a.541.541,0,0,1-1.08,0Zm-3.73,0a.541.541,0,0,1,1.08,0V3.147a.541.541,0,0,1-1.08,0ZM15.82,13.251a.769.769,0,0,1-.808.72H3.936a.769.769,0,0,1-.808-.72V4.2H15.82Z" transform="translate(-1.974)" fill="#a1a1a1"/><rect width="2.178" height="1.938" transform="translate(2.252 5.904)" fill="#a1a1a1"/><rect width="2.179" height="1.938" transform="translate(5.001 5.904)" fill="#a1a1a1"/><rect width="2.178" height="1.938" transform="translate(7.821 5.904)" fill="#a1a1a1"/><rect width="2.179" height="1.938" transform="translate(10.57 5.904)" fill="#a1a1a1"/><rect width="2.178" height="1.937" transform="translate(2.252 8.107)" fill="#a1a1a1"/><rect width="2.179" height="1.937" transform="translate(5.001 8.107)" fill="#a1a1a1"/><rect width="2.178" height="1.937" transform="translate(7.821 8.107)" fill="#a1a1a1"/><rect width="2.179" height="1.937" transform="translate(10.57 8.107)" fill="#a1a1a1"/><rect width="2.178" height="1.937" transform="translate(2.252 10.31)" fill="#a1a1a1"/><rect width="2.179" height="1.937" transform="translate(5.001 10.31)" fill="#a1a1a1"/><rect width="2.178" height="1.937" transform="translate(7.821 10.31)" fill="#a1a1a1"/><rect width="2.179" height="1.937" transform="translate(10.57 10.31)" fill="#a1a1a1"/></g></svg>