<svg xmlns="http://www.w3.org/2000/svg" width="26" height="26" viewBox="0 0 26 26"><defs><style>.a{fill:#fde2e2;}.b{fill:#e96f6f;}</style></defs><g transform="translate(-1516 -5)"><rect class="a" width="26" height="26" rx="3" transform="translate(1516 5)"/><path class="b" d="M-4.334-5.7A1.533,1.533,0,0,0-2.8-4.246h5.61A1.533,1.533,0,0,0,4.334-5.7l.473-9.548h.8V-16.1h-3.2v-.561A1.084,1.084,0,0,0,1.32-17.754H-1.32a1.084,1.084,0,0,0-1.089,1.089v.561h-3.2v.858h.8Zm2.783-10.967A.226.226,0,0,1-1.32-16.9H1.32a.226.226,0,0,1,.231.231v.561h-3.1ZM3.476-5.742a.675.675,0,0,1-.671.638H-2.8a.675.675,0,0,1-.671-.638l-.473-9.5h7.9Zm-4.807-.594-.264-7.7L-2.453-14l.264,7.689ZM2.453-14,1.6-14.036l-.264,7.7.858.022ZM.429-14.025H-.429v7.7H.429Z" transform="translate(1529 29)"/></g></svg>