<svg xmlns="http://www.w3.org/2000/svg" width="18.566" height="18.566" viewBox="0 0 18.566 18.566"><defs><style>.a{fill:#707070;fill-rule:evenodd;}</style></defs><g transform="translate(-0.002 0)"><g transform="translate(0.003 0)"><path class="a" d="M18.51,8.252a.6.6,0,0,0-.6-.457,2.05,2.05,0,0,1-1.4-3.568.516.516,0,0,0,.056-.7A9.186,9.186,0,0,0,15.1,2.043a.517.517,0,0,0-.706.057,2.14,2.14,0,0,1-2.315.52A2.062,2.062,0,0,1,10.822.6a.515.515,0,0,0-.456-.542A9.268,9.268,0,0,0,8.278.056a.517.517,0,0,0-.46.531A2.065,2.065,0,0,1,6.547,2.568a2.145,2.145,0,0,1-2.3-.523.518.518,0,0,0-.7-.059,9.221,9.221,0,0,0-1.5,1.485.516.516,0,0,0,.055.706,2.057,2.057,0,0,1,.519,2.316A2.146,2.146,0,0,1,.6,7.747.5.5,0,0,0,.065,8.2a9.3,9.3,0,0,0,0,2.111.614.614,0,0,0,.609.456,2.036,2.036,0,0,1,1.91,1.272,2.064,2.064,0,0,1-.519,2.3.516.516,0,0,0-.056.7,9.219,9.219,0,0,0,1.469,1.486.516.516,0,0,0,.707-.056,2.136,2.136,0,0,1,2.314-.521,2.059,2.059,0,0,1,1.256,2.015A.516.516,0,0,0,8.2,18.5a9.239,9.239,0,0,0,2.088.006.517.517,0,0,0,.46-.532A2.063,2.063,0,0,1,12.023,16a2.142,2.142,0,0,1,2.3.523.519.519,0,0,0,.7.059,9.242,9.242,0,0,0,1.5-1.485.515.515,0,0,0-.055-.706,2.057,2.057,0,0,1-.52-2.316,2.078,2.078,0,0,1,1.9-1.258l.115,0a.517.517,0,0,0,.543-.455A9.291,9.291,0,0,0,18.51,8.252ZM9.3,12.4a3.1,3.1,0,1,1,3.1-3.1A3.1,3.1,0,0,1,9.3,12.4Z" transform="translate(-0.003 0)"/></g></g></svg>