<svg xmlns="http://www.w3.org/2000/svg" width="170" height="36.76" viewBox="0 0 170 36.76"><defs><style>.a{fill:#fff;}.b{fill:#3fcbc5;}.c{fill:#788f95;}.d{fill:#a2a2a2;}</style></defs><g transform="translate(-57 -538)"><g transform="translate(1309 1887.001)"><circle class="a" cx="18.38" cy="18.38" r="18.38" transform="translate(-1252 -1349)"/><path class="b" d="M73.643-287.368h.672c5.679,0,11.359.035,17.037-.013a7.158,7.158,0,0,0,7-4.953A7.206,7.206,0,0,0,95.5-300.67a7.086,7.086,0,0,0-3.974-1.225c-2.49-.032-4.98-.008-7.47-.01a1.49,1.49,0,0,1-1.633-1.5,1.549,1.549,0,0,1,1.658-1.553c3.906,0,7.811-.01,11.716.01.462,0,.585-.124.556-.569-.039-.611-.021-1.228,0-1.841.007-.278-.063-.388-.366-.387-4.11.009-8.221-.045-12.33.031A3.934,3.934,0,0,0,80-305.179a4.169,4.169,0,0,0,.465,4.341,4.165,4.165,0,0,0,3.612,1.733q3.633-.008,7.265,0a4.472,4.472,0,0,1,3.926,2.142,4.45,4.45,0,0,1-3.373,6.739c-1.483.1-2.963.054-4.443.058-5.219.014-10.437,0-15.656.015a.946.946,0,0,1-.907-.5,17.965,17.965,0,0,1-2.7-7.5,17.93,17.93,0,0,1,2.1-11.163,18.249,18.249,0,0,1,7.316-7.315,17.484,17.484,0,0,1,6.687-2.133A18.111,18.111,0,0,1,97.9-314.814a7.471,7.471,0,0,1,1.176,1.11c-.189.195-.406.121-.6.121q-7.265.006-14.531,0a9.776,9.776,0,0,0-6.313,2.188,9.938,9.938,0,0,0-3.839,8.576,10.166,10.166,0,0,0,7.812,9.306,8.414,8.414,0,0,0,1.967.237q3.914,0,7.828,0a1.337,1.337,0,0,0,1.3-.717,1.345,1.345,0,0,0-.109-1.489,1.528,1.528,0,0,0-1.387-.589c-2.456,0-4.913-.041-7.367.007a7.454,7.454,0,0,1-7.284-7.275,7.527,7.527,0,0,1,5.953-7.327,6.222,6.222,0,0,1,1.214-.125c5.8-.008,11.6,0,17.4-.014a.794.794,0,0,1,.783.41,18.509,18.509,0,0,1,2.728,7.593,17.9,17.9,0,0,1-1.858,10.663,18.3,18.3,0,0,1-7.739,7.864A17.962,17.962,0,0,1,84.8-282.184,17.693,17.693,0,0,1,74.6-286.436,5.224,5.224,0,0,1,73.643-287.368Z" transform="translate(-1320.026 -1030.13)"/></g><g transform="translate(0 0.29)"><path class="b" d="M1243.006-220.515c0-2.092.011-4.185-.009-6.278,0-.426.126-.552.549-.55q4.313.023,8.625,0c.4,0,.526.12.522.525-.011,1.261.005,1.261-1.259,1.261-1.974,0-3.947.01-5.92-.009-.378,0-.5.094-.488.481q.041,1.53,0,3.062c-.01.391.086.524.5.519,1.922-.023,3.845,0,5.767-.019.442,0,.591.112.582.571-.025,1.216,0,1.216-1.2,1.216-1.718,0-3.437.01-5.155-.008-.369,0-.5.077-.494.475q.042,1.658,0,3.317c-.01.4.133.474.5.472,2.3-.015,4.594,0,6.89-.018.458,0,.578.137.57.581-.023,1.208,0,1.208-1.208,1.208-2.705,0-5.41-.012-8.115.011-.5,0-.676-.1-.667-.643C1243.026-216.4,1243.006-218.456,1243.006-220.515Z" transform="translate(-1025.984 767.18)"/><path class="b" d="M958.435-228.093a8.5,8.5,0,0,1,4.088,1.036c.258.155.318.281.174.556a7.972,7.972,0,0,0-.4.988c-.1.282-.22.347-.508.168a6.4,6.4,0,0,0-4.835-.823,2.1,2.1,0,0,0-1.5.957,1.592,1.592,0,0,0,.652,2.372,14.889,14.889,0,0,0,3.142.963,7.381,7.381,0,0,1,3.27,1.526,3.543,3.543,0,0,1,.418,3.923,4.575,4.575,0,0,1-3.546,2.083,9.372,9.372,0,0,1-4.882-.607c-.142-.056-.279-.123-.416-.191-1.35-.663-1.4-.841-.658-2.118.124-.214.192-.251.413-.093a7.372,7.372,0,0,0,5.159,1.29,2.88,2.88,0,0,0,1.886-.774,1.708,1.708,0,0,0-.842-2.806c-1.079-.407-2.223-.586-3.323-.92a6.057,6.057,0,0,1-2.572-1.25,3.131,3.131,0,0,1-.843-3.353,3.92,3.92,0,0,1,3.2-2.721A7.106,7.106,0,0,1,958.435-228.093Z" transform="translate(-775.452 767.83)"/><path class="b" d="M1153.025-220.539c0-2.092.01-4.184-.009-6.276,0-.406.119-.526.522-.524q4.337.022,8.674,0c.374,0,.5.111.5.5,0,1.289.013,1.289-1.28,1.289-1.973,0-3.946.007-5.919-.007-.345,0-.472.081-.466.449q.033,1.836,0,3.674c-.007.373.129.448.469.445,1.922-.014,3.844,0,5.766-.015.448,0,.63.09.616.588-.034,1.2-.007,1.2-1.221,1.2-1.718,0-3.436.012-5.153-.009-.393,0-.482.119-.477.491.02,1.514,0,3.028.016,4.541.005.383-.118.523-.494.5a5.93,5.93,0,0,0-.969,0c-.437.041-.591-.1-.586-.564C1153.038-216.354,1153.025-218.447,1153.025-220.539Z" transform="translate(-948.258 767.177)"/><path class="c" d="M699.856-226.048q-.735,2.09-1.466,4.165c-.85,2.42-1.717,4.834-2.534,7.265-.164.488-.48.351-.793.392-.34.044-.464-.115-.565-.416-1.411-4.2-2.837-8.4-4.244-12.6-.054-.162-.346-.394-.018-.554a.792.792,0,0,1,.985.3q.773,2.293,1.537,4.589,1.134,3.383,2.27,6.764c.041.123.1.242.193.489.208-.588.378-1.056.54-1.527,1.175-3.4,2.359-6.8,3.512-10.216.131-.387.339-.411.667-.425a.519.519,0,0,1,.609.431q1.981,5.837,4,11.669c.209-.075.189-.278.239-.422q1.868-5.5,3.721-11.007c.241-.716.24-.716,1.2-.622l-.955,2.841c-1.148,3.413-2.3,6.824-3.436,10.242a.6.6,0,0,1-.689.479.636.636,0,0,1-.731-.5q-1.885-5.494-3.813-10.974C700.045-225.806,700.054-225.967,699.856-226.048Z" transform="translate(-548.37 767.63)"/><path class="c" d="M380.083-214.478c-4.124,0-6.81-2.079-7.487-5.459a6.784,6.784,0,0,1,6.694-8.331,6.569,6.569,0,0,1,4.661,1.58c.232.206.378.359.081.642-.245.234-.371.372-.717.064A5.692,5.692,0,0,0,377.344-227a5.446,5.446,0,0,0-3.791,4.537,5.829,5.829,0,0,0,4.807,7,5.616,5.616,0,0,0,4.966-1.244c.447-.4.563,0,.784.191.312.268-.017.369-.156.492A6.182,6.182,0,0,1,380.083-214.478Z" transform="translate(-273.986 767.98)"/><path class="b" d="M1048.44-214.369c-1.841-4.033-3.7-8.06-5.488-12.114a1.5,1.5,0,0,0-1.7-1.123,1.2,1.2,0,0,0-1.2.82c-1.454,3.261-2.942,6.507-4.416,9.76-.412.909-.81,1.824-1.228,2.73-.132.286-.038.361.239.356a11.765,11.765,0,0,1,1.224.006.652.652,0,0,0,.729-.482c.363-.857.756-1.7,1.116-2.559a.489.489,0,0,1,.536-.344c1.054.016,2.109.006,3.164.006s2.11.009,3.164-.006a.488.488,0,0,1,.536.344c.325.78.7,1.541,1.009,2.327.2.5.444.806,1.04.715a5.944,5.944,0,0,1,1.019-.008C1048.541-213.933,1048.579-214.065,1048.44-214.369Zm-4.571-4.617c-1.631-.007-3.262,0-4.894-.006-.159,0-.388.04-.255-.261l2.7-6.1c.575,1.294,1.107,2.49,1.638,3.687.342.773.674,1.55,1.028,2.317C1044.205-219.088,1044.183-218.985,1043.87-218.986Z" transform="translate(-845.758 767.414)"/><path class="c" d="M866.326-223.86a6.471,6.471,0,0,0-6.077-3.761c-1.783-.076-3.571,0-5.357-.023-.37,0-.448.117-.445.463.015,2.109.008,4.218.008,6.327,0,2.126.006,4.252-.007,6.378,0,.327.082.435.423.432,1.82-.016,3.642.045,5.459-.022a6.592,6.592,0,0,0,5.211-2.493A6.7,6.7,0,0,0,866.326-223.86Zm-6.106,8.895c-1.444.06-2.892,0-4.338.018-.337,0-.432-.1-.43-.435.014-1.837.007-3.675.007-5.512,0-1.786.01-3.573-.008-5.359,0-.375.092-.5.481-.49,1.378.023,2.756,0,4.134.012a5.655,5.655,0,0,1,5.772,4.447A5.76,5.76,0,0,1,860.219-214.965Z" transform="translate(-690.35 767.451)"/><path class="c" d="M490.342-218.7a4.1,4.1,0,0,0,3.116-3.681,4.236,4.236,0,0,0-2.305-4.543,5.878,5.878,0,0,0-2.557-.615c-1.666-.027-3.334,0-5-.016-.349,0-.418.118-.417.438q.014,6.353,0,12.706c0,.422.162.463.505.457.327-.006.532-.012.52-.449-.032-1.173,0-2.347-.019-3.52-.007-.362.109-.456.462-.457a40.762,40.762,0,0,0,4.28-.074.673.673,0,0,1,.7.356c.8,1.16,1.671,2.278,2.425,3.468a1.3,1.3,0,0,0,1.611.612Zm-.951-.7a38.466,38.466,0,0,1-4.943.128c-.3.008-.259-.2-.259-.382q0-1.659,0-3.318c0-1.089,0-2.178,0-3.267,0-.173-.065-.409.241-.4a30.765,30.765,0,0,1,5.193.147,3.634,3.634,0,0,1,2.157,5.763A3.514,3.514,0,0,1,489.39-219.407Z" transform="translate(-369.638 767.368)"/><path class="c" d="M589.564-222.925a6.748,6.748,0,0,0-6.859-5.326,6.85,6.85,0,0,0-6.877,8.535,6.814,6.814,0,0,0,6.978,5.253A6.833,6.833,0,0,0,589.564-222.925Zm-6.9,7.56a5.852,5.852,0,0,1-6.01-6.084,5.856,5.856,0,0,1,6.04-5.9,5.835,5.835,0,0,1,6,6.033A5.839,5.839,0,0,1,582.664-215.365Z" transform="translate(-449.513 767.965)"/><path class="d" d="M-59.322-1.951a1.816,1.816,0,0,1-.7,1.5A2.887,2.887,0,0,1-61.869.1,5.8,5.8,0,0,1-64-.2V-.73a5.382,5.382,0,0,0,2.086.347A2.337,2.337,0,0,0-60.432-.81a1.355,1.355,0,0,0,.546-1.121,1.293,1.293,0,0,0-.181-.712,1.653,1.653,0,0,0-.59-.515,7.276,7.276,0,0,0-1.2-.5,4.11,4.11,0,0,1-1.6-.862A1.713,1.713,0,0,1-63.9-5.755a1.7,1.7,0,0,1,.665-1.385,2.641,2.641,0,0,1,1.711-.536,5.007,5.007,0,0,1,2,.4l-.192.455a4.672,4.672,0,0,0-1.8-.393,2.112,2.112,0,0,0-1.335.388,1.268,1.268,0,0,0-.5,1.056,1.383,1.383,0,0,0,.153.688,1.4,1.4,0,0,0,.5.484,6.838,6.838,0,0,0,1.19.515,6.417,6.417,0,0,1,1.33.593,1.9,1.9,0,0,1,.65.652A1.78,1.78,0,0,1-59.322-1.951ZM-54.436,0l-.129-.89h-.041a2.672,2.672,0,0,1-.872.769A2.33,2.33,0,0,1-56.538.1a1.831,1.831,0,0,1-1.289-.424A1.518,1.518,0,0,1-58.287-1.5,1.45,1.45,0,0,1-57.6-2.774a3.729,3.729,0,0,1,1.985-.481l1.071-.031v-.373a1.913,1.913,0,0,0-.326-1.211,1.264,1.264,0,0,0-1.051-.409,3.514,3.514,0,0,0-1.62.435l-.192-.445A4.287,4.287,0,0,1-55.9-5.724a1.826,1.826,0,0,1,1.385.481,2.115,2.115,0,0,1,.458,1.5V0Zm-2.07-.362a1.931,1.931,0,0,0,1.421-.515,1.923,1.923,0,0,0,.52-1.431v-.554l-.983.041a3.715,3.715,0,0,0-1.69.37,1.066,1.066,0,0,0-.5.976,1.049,1.049,0,0,0,.323.82A1.315,1.315,0,0,0-56.507-.362Zm6.361-4.819h-1.325V0h-.512V-5.181h-1.046v-.3l1.046-.192v-.435a2.455,2.455,0,0,1,.38-1.519,1.488,1.488,0,0,1,1.245-.484,3.228,3.228,0,0,1,.932.14l-.119.445a2.747,2.747,0,0,0-.823-.129.971.971,0,0,0-.851.355,2.038,2.038,0,0,0-.251,1.152v.523h1.325ZM-46.786.1A2.451,2.451,0,0,1-48.7-.652a3.037,3.037,0,0,1-.686-2.117,3.3,3.3,0,0,1,.663-2.156,2.187,2.187,0,0,1,1.786-.81,1.928,1.928,0,0,1,1.568.694,2.864,2.864,0,0,1,.575,1.884v.414h-4.053a2.662,2.662,0,0,0,.541,1.77,1.9,1.9,0,0,0,1.519.611A4.712,4.712,0,0,0-45.94-.43a5.143,5.143,0,0,0,.924-.29v.466a4.121,4.121,0,0,1-.88.282A4.884,4.884,0,0,1-46.786.1Zm-.15-5.383a1.686,1.686,0,0,0-1.3.536A2.527,2.527,0,0,0-48.815-3.2h3.478a2.453,2.453,0,0,0-.424-1.529A1.4,1.4,0,0,0-46.937-5.279ZM-38.241.1A2.409,2.409,0,0,1-40.13-.657a3.064,3.064,0,0,1-.683-2.122A3.116,3.116,0,0,1-40.1-4.956a2.493,2.493,0,0,1,1.941-.779,3.9,3.9,0,0,1,1.4.254l-.14.455a4.1,4.1,0,0,0-1.268-.243,1.926,1.926,0,0,0-1.568.639,2.8,2.8,0,0,0-.533,1.84,2.718,2.718,0,0,0,.533,1.783,1.828,1.828,0,0,0,1.491.644,3.659,3.659,0,0,0,1.423-.274V-.16A3.226,3.226,0,0,1-38.241.1Zm5-5.838a4.4,4.4,0,0,1,.766.072l-.1.492a3,3,0,0,0-.73-.088,1.417,1.417,0,0,0-1.18.611,2.49,2.49,0,0,0-.461,1.542V0h-.512V-5.626h.435l.052,1.014h.036a2.385,2.385,0,0,1,.74-.872A1.734,1.734,0,0,1-33.236-5.735Zm6.563,2.914A3.187,3.187,0,0,1-27.341-.67,2.305,2.305,0,0,1-29.184.1a2.386,2.386,0,0,1-1.3-.357,2.284,2.284,0,0,1-.864-1.025,3.728,3.728,0,0,1-.3-1.542,3.166,3.166,0,0,1,.668-2.145,2.3,2.3,0,0,1,1.832-.769,2.257,2.257,0,0,1,1.819.779A3.2,3.2,0,0,1-26.673-2.821Zm-4.441,0a2.863,2.863,0,0,0,.51,1.809,1.726,1.726,0,0,0,1.441.65,1.726,1.726,0,0,0,1.441-.65,2.863,2.863,0,0,0,.51-1.809,2.818,2.818,0,0,0-.515-1.806,1.75,1.75,0,0,0-1.447-.642,1.723,1.723,0,0,0-1.436.639A2.857,2.857,0,0,0-31.114-2.821ZM-20.618,0-21.85-3.763q-.119-.383-.305-1.123h-.031l-.109.383-.233.75L-23.78,0h-.507L-25.9-5.626h.549l.9,3.261q.316,1.211.414,1.78H-24q.305-1.211.445-1.61L-22.4-5.626h.466l1.1,3.421q.373,1.216.455,1.61h.031q.041-.336.414-1.8l.859-3.23h.518L-20.079,0Zm5.228-5.735a2.336,2.336,0,0,1,1.056.223,2.1,2.1,0,0,1,.8.761h.031q-.031-.652-.031-1.278V-8.054h.507V0h-.336L-13.5-.859h-.041A2.082,2.082,0,0,1-15.38.1a2.207,2.207,0,0,1-1.78-.725,3.179,3.179,0,0,1-.616-2.112,3.527,3.527,0,0,1,.611-2.231A2.13,2.13,0,0,1-15.39-5.735Zm0,.466a1.592,1.592,0,0,0-1.385.647,3.206,3.206,0,0,0-.463,1.879q0,2.391,1.858,2.391a1.686,1.686,0,0,0,1.4-.554,2.939,2.939,0,0,0,.445-1.827v-.088A3.132,3.132,0,0,0-13.975-4.7,1.669,1.669,0,0,0-15.39-5.269ZM-3.89,0-5.121-3.763q-.119-.383-.305-1.123h-.031l-.109.383-.233.75L-7.052,0h-.507l-1.61-5.626h.549l.9,3.261q.316,1.211.414,1.78h.031q.305-1.211.445-1.61L-5.67-5.626H-5.2L-4.1-2.2q.373,1.216.455,1.61h.031q.041-.336.414-1.8l.859-3.23h.518L-3.351,0ZM-.21,0H-.722V-5.626H-.21ZM-.794-7.189q0-.5.326-.5a.29.29,0,0,1,.251.129.635.635,0,0,1,.091.367.651.651,0,0,1-.091.367.286.286,0,0,1-.251.135Q-.794-6.687-.794-7.189ZM3.16-.352a3.843,3.843,0,0,0,.849-.083v.414A2.716,2.716,0,0,1,3.149.1a1.4,1.4,0,0,1-1.1-.4A1.85,1.85,0,0,1,1.7-1.548V-5.181H.862v-.3L1.7-5.714l.259-1.273h.264v1.361H3.869v.445H2.218V-1.62a1.625,1.625,0,0,0,.228.958A.827.827,0,0,0,3.16-.352ZM9.148,0V-3.649a1.779,1.779,0,0,0-.357-1.234,1.441,1.441,0,0,0-1.108-.386,1.917,1.917,0,0,0-1.478.51,2.4,2.4,0,0,0-.468,1.654V0H5.225V-8.054h.512v2.562l-.026.719h.036a1.888,1.888,0,0,1,.8-.735,2.789,2.789,0,0,1,1.2-.228q1.915,0,1.915,2.055V0ZM17.59-7.2a2.859,2.859,0,0,0-2.241.911,3.6,3.6,0,0,0-.818,2.495A3.736,3.736,0,0,0,15.3-1.278a2.751,2.751,0,0,0,2.2.9,5.972,5.972,0,0,0,1.749-.243V-.16A5.708,5.708,0,0,1,17.383.1a3.188,3.188,0,0,1-2.51-1.03A4.182,4.182,0,0,1,13.956-3.8a4.513,4.513,0,0,1,.437-2.034A3.165,3.165,0,0,1,15.652-7.2a3.715,3.715,0,0,1,1.907-.479,4.578,4.578,0,0,1,1.982.414l-.212.476A3.839,3.839,0,0,0,17.59-7.2Zm5.44,1.465a4.4,4.4,0,0,1,.766.072l-.1.492a3,3,0,0,0-.73-.088,1.417,1.417,0,0,0-1.18.611,2.49,2.49,0,0,0-.461,1.542V0h-.512V-5.626h.435L21.3-4.612h.036a2.385,2.385,0,0,1,.74-.872A1.734,1.734,0,0,1,23.03-5.735Zm6.563,2.914A3.187,3.187,0,0,1,28.925-.67,2.305,2.305,0,0,1,27.082.1a2.386,2.386,0,0,1-1.3-.357,2.284,2.284,0,0,1-.864-1.025,3.728,3.728,0,0,1-.3-1.542,3.166,3.166,0,0,1,.668-2.145,2.3,2.3,0,0,1,1.832-.769,2.257,2.257,0,0,1,1.819.779A3.2,3.2,0,0,1,29.593-2.821Zm-4.441,0a2.863,2.863,0,0,0,.51,1.809,1.726,1.726,0,0,0,1.441.65,1.726,1.726,0,0,0,1.441-.65,2.863,2.863,0,0,0,.51-1.809,2.818,2.818,0,0,0-.515-1.806,1.75,1.75,0,0,0-1.447-.642,1.723,1.723,0,0,0-1.436.639A2.857,2.857,0,0,0,25.152-2.821ZM35.648,0,34.416-3.763q-.119-.383-.305-1.123H34.08l-.109.383-.233.75L32.486,0h-.507l-1.61-5.626h.549l.9,3.261q.316,1.211.414,1.78h.031q.305-1.211.445-1.61l1.159-3.432h.466l1.1,3.421q.373,1.216.455,1.61h.031q.041-.336.414-1.8l.859-3.23h.518L36.186,0Zm5.228-5.735a2.336,2.336,0,0,1,1.056.223,2.1,2.1,0,0,1,.8.761h.031q-.031-.652-.031-1.278V-8.054h.507V0H42.9L42.77-.859h-.041A2.082,2.082,0,0,1,40.886.1a2.207,2.207,0,0,1-1.78-.725,3.179,3.179,0,0,1-.616-2.112A3.527,3.527,0,0,1,39.1-4.964,2.13,2.13,0,0,1,40.876-5.735Zm0,.466a1.592,1.592,0,0,0-1.385.647,3.206,3.206,0,0,0-.463,1.879q0,2.391,1.858,2.391a1.686,1.686,0,0,0,1.4-.554,2.939,2.939,0,0,0,.445-1.827v-.088A3.132,3.132,0,0,0,42.291-4.7,1.669,1.669,0,0,0,40.876-5.269Zm8.556,3.318a1.816,1.816,0,0,1-.7,1.5A2.887,2.887,0,0,1,46.885.1,5.8,5.8,0,0,1,44.758-.2V-.73a5.382,5.382,0,0,0,2.086.347A2.337,2.337,0,0,0,48.321-.81a1.355,1.355,0,0,0,.546-1.121,1.293,1.293,0,0,0-.181-.712,1.653,1.653,0,0,0-.59-.515,7.276,7.276,0,0,0-1.2-.5,4.11,4.11,0,0,1-1.6-.862,1.713,1.713,0,0,1-.443-1.234,1.7,1.7,0,0,1,.665-1.385,2.641,2.641,0,0,1,1.711-.536,5.007,5.007,0,0,1,2,.4l-.192.455a4.672,4.672,0,0,0-1.8-.393,2.112,2.112,0,0,0-1.335.388,1.268,1.268,0,0,0-.5,1.056,1.383,1.383,0,0,0,.153.688,1.4,1.4,0,0,0,.5.484,6.838,6.838,0,0,0,1.19.515,6.417,6.417,0,0,1,1.33.593,1.9,1.9,0,0,1,.65.652A1.78,1.78,0,0,1,49.431-1.951ZM54.317,0l-.129-.89h-.041a2.672,2.672,0,0,1-.872.769A2.33,2.33,0,0,1,52.216.1a1.831,1.831,0,0,1-1.289-.424A1.518,1.518,0,0,1,50.466-1.5a1.45,1.45,0,0,1,.686-1.278,3.729,3.729,0,0,1,1.985-.481l1.071-.031v-.373a1.913,1.913,0,0,0-.326-1.211,1.264,1.264,0,0,0-1.051-.409,3.514,3.514,0,0,0-1.62.435L51.02-5.29a4.287,4.287,0,0,1,1.832-.435,1.826,1.826,0,0,1,1.385.481,2.115,2.115,0,0,1,.458,1.5V0Zm-2.07-.362a1.931,1.931,0,0,0,1.421-.515,1.923,1.923,0,0,0,.52-1.431v-.554l-.983.041a3.715,3.715,0,0,0-1.69.37,1.066,1.066,0,0,0-.5.976,1.049,1.049,0,0,0,.323.82A1.315,1.315,0,0,0,52.247-.362Zm6.361-4.819H57.283V0h-.512V-5.181H55.725v-.3l1.046-.192v-.435a2.455,2.455,0,0,1,.38-1.519A1.488,1.488,0,0,1,58.4-8.11a3.228,3.228,0,0,1,.932.14l-.119.445a2.747,2.747,0,0,0-.823-.129.971.971,0,0,0-.851.355,2.038,2.038,0,0,0-.251,1.152v.523h1.325ZM61.967.1a2.451,2.451,0,0,1-1.912-.756,3.037,3.037,0,0,1-.686-2.117,3.3,3.3,0,0,1,.663-2.156,2.187,2.187,0,0,1,1.786-.81,1.928,1.928,0,0,1,1.568.694,2.864,2.864,0,0,1,.575,1.884v.414H59.907a2.662,2.662,0,0,0,.541,1.77,1.9,1.9,0,0,0,1.519.611,4.712,4.712,0,0,0,.846-.067,5.143,5.143,0,0,0,.924-.29v.466a4.121,4.121,0,0,1-.88.282A4.884,4.884,0,0,1,61.967.1Zm-.15-5.383a1.686,1.686,0,0,0-1.3.536A2.527,2.527,0,0,0,59.938-3.2h3.478a2.453,2.453,0,0,0-.424-1.529A1.4,1.4,0,0,0,61.817-5.279Z" transform="translate(163 570)"/></g></g></svg>