<svg xmlns="http://www.w3.org/2000/svg" width="30.326" height="33.15" viewBox="0 0 30.326 33.15"><defs><style>.a{fill:#398e92;}</style></defs><g transform="translate(0 0)"><path class="a" d="M138.814,10.072c.215,2.822,1.337,1.606,1.569,2.843a6.143,6.143,0,0,0,3.338,4.057,5.122,5.122,0,0,0,2.057.462h.015a5.121,5.121,0,0,0,2.058-.462,6.143,6.143,0,0,0,3.338-4.057c.232-1.237,1.354-.02,1.569-2.843,0-1.125-.613-1.4-.613-1.4s.312-1.665.434-2.946c.151-1.6-.932-5.721-6.71-5.721L145.8,0h-.02L145.7,0c-5.777,0-6.861,4.124-6.709,5.721.122,1.281.434,2.946.434,2.946S138.814,8.947,138.814,10.072Z" transform="translate(-130.665)"/><path class="a" d="M48.736,285.9c-2.914-1.482-7.138-3.334-7.341-3.4l-.006,0a1.134,1.134,0,0,0-1.45.693h0c-.752,1.813-2.134,5.044-2.992,6.6l-.207-4.368s1.288-2.735,1.429-2.985c.332-.587.033-1.087-.589-1.087H33.765c-.622,0-.921.5-.589,1.087.141.25,1.429,2.985,1.429,2.985l-.207,4.368c-.858-1.558-2.24-4.789-2.992-6.6h0a1.134,1.134,0,0,0-1.45-.693l-.006,0c-.2.065-4.427,1.917-7.341,3.4-1.309.666-2.1,1.494-2.1,2.365v6.859H50.835v-6.859C50.835,287.39,50.045,286.562,48.736,285.9Z" transform="translate(-20.509 -261.97)"/></g></svg>