<svg xmlns="http://www.w3.org/2000/svg" width="25.667" height="25.667" viewBox="0 0 25.667 25.667"><defs><style>.a{fill:#398e92;}.b{fill:#fff;}</style></defs><g transform="translate(0)"><path class="a" d="M4.278,0H21.389a4.278,4.278,0,0,1,4.278,4.278V21.389a4.278,4.278,0,0,1-4.278,4.278H4.278A4.278,4.278,0,0,1,0,21.389V4.278A4.278,4.278,0,0,1,4.278,0Z"/><g transform="translate(4.747 4.441)"><g transform="translate(0)"><rect class="b" width="5.192" height="1.039" transform="translate(5.192 12.461)"/><path class="b" d="M92.023,1.038h8.307V3.115h1.038V1.038A1.038,1.038,0,0,0,100.331,0H92.023a1.039,1.039,0,0,0-1.038,1.038V3.115h1.038Z" transform="translate(-87.87)"/><rect class="b" width="6.23" height="1.038" transform="translate(5.192 10.384)"/><path class="b" d="M15.583,121.3H1.045a1.039,1.039,0,0,0-1.038,1.038v6.231a1.038,1.038,0,0,0,1.038,1.038H3.122v3.115a1.038,1.038,0,0,0,1.038,1.038h8.307a1.038,1.038,0,0,0,1.038-1.038v-3.115h2.077a1.038,1.038,0,0,0,1.038-1.038v-6.231A1.038,1.038,0,0,0,15.583,121.3Zm-3.115,11.423H4.161V126.5h8.307v6.231Zm2.077-8.308a1.038,1.038,0,1,1,1.039-1.038A1.038,1.038,0,0,1,14.545,124.419Z" transform="translate(-0.007 -117.15)"/></g></g></g></svg>