<svg xmlns="http://www.w3.org/2000/svg" width="35" height="35" viewBox="0 0 35 35"><defs><style>.a{fill:#398e92;}.b{fill:#fff;}</style></defs><g transform="translate(-1465 -234)"><path class="a" d="M5.833,0H29.167A5.833,5.833,0,0,1,35,5.833V29.167A5.833,5.833,0,0,1,29.167,35H5.833A5.833,5.833,0,0,1,0,29.167V5.833A5.833,5.833,0,0,1,5.833,0Z" transform="translate(1465 234)"/><g transform="translate(1455.933 242)"><g transform="translate(17.067)"><g transform="translate(0)"><path class="b" d="M33.107,0a.7.7,0,0,0-.7.7V3.245A9.049,9.049,0,0,0,17.067,9.764a.7.7,0,1,0,1.395,0,7.672,7.672,0,0,1,13.33-5.178L28.7,5.616a.7.7,0,0,0,.441,1.325l4.184-1.395a.7.7,0,0,0,.477-.664V.7A.7.7,0,0,0,33.107,0Z" transform="translate(-17.067)"/></g></g><g transform="translate(18.461 9.066)"><g transform="translate(0)"><path class="b" d="M67.238,221.867a.7.7,0,0,0-.7.7,7.672,7.672,0,0,1-13.33,5.178l3.09-1.03a.7.7,0,1,0-.441-1.325l-4.184,1.395a.7.7,0,0,0-.477.664v4.184a.7.7,0,0,0,1.395,0v-2.548a9.049,9.049,0,0,0,15.343-6.519A.7.7,0,0,0,67.238,221.867Z" transform="translate(-51.198 -221.867)"/></g></g></g></g></svg>