<svg xmlns="http://www.w3.org/2000/svg" width="26" height="26" viewBox="0 0 26 26"><defs><style>.a{fill:#398e92;}.b{fill:#fff;}</style></defs><g transform="translate(-1496 -509)"><path class="a" d="M3,0H23a3,3,0,0,1,3,3V23a3,3,0,0,1-3,3H3a3,3,0,0,1-3-3V3A3,3,0,0,1,3,0Z" transform="translate(1496 509)"/><g transform="translate(1502 515)"><g transform="translate(3.432 4.26)"><path class="b" d="M114.621,135.04l-3.257,3.318-1.669-1.676-.9.9,2.631,2.625,4.226-4.1Z" transform="translate(-108.8 -135.04)"/></g><path class="b" d="M6.73,0a6.73,6.73,0,1,0,6.73,6.73A6.73,6.73,0,0,0,6.73,0Zm0,12.241A5.512,5.512,0,1,1,12.241,6.73,5.512,5.512,0,0,1,6.73,12.241Z"/></g></g></svg>