<svg xmlns="http://www.w3.org/2000/svg" width="28.76" height="28.76" viewBox="0 0 28.76 28.76"><defs><style>.a{fill:#efefef;}.b{fill:#979797;}</style></defs><g transform="translate(-776.162 -554.314)"><rect class="a" width="28.76" height="28.76" transform="translate(776.162 554.314)"/><g transform="translate(784.625 561.099)"><g transform="translate(0)"><circle class="b" cx="1.367" cy="1.367" r="1.367" transform="translate(3.316 2.64)"/><path class="b" d="M17.993,1.205,18.412.58l-.737-.3-4.69,1.6.317.93Z" transform="translate(-10.698 -0.201)"/><path class="b" d="M41.18.738,41.034,0,40.3.305,38.114,4.754,39,5.188Z" transform="translate(-29.026)"/><path class="b" d="M15.707,17.286c-1.589-1.069-3.174-2.156-4.8-3.164a1.259,1.259,0,0,0-.027-.417,19.684,19.684,0,0,1-.344-2.069c.87-.041,1.739-.111,2.61-.157a.869.869,0,0,0,.763-1.16l.2-.4.319.157.151-.307L13.409,9.2l-.151.307.282.138-.1.205a.849.849,0,0,0-.285-.031c-1.262.067-2.522.184-3.788.191a1.233,1.233,0,0,0-.41.02L7.075,9.566,6.248,7.044l.32-.109.115.337.323-.11-.42-1.227-.323.111.1.3-.414.141c-.549-.5-1.652-.061-1.37.8L5.59,10.359c.214.654.7.722,1.277.866l1.1.271a22.973,22.973,0,0,0,.4,2.635L6.3,14.539a.829.829,0,0,0-.587,1.016c.317.929.613,1.865.91,2.8.323,1.017,1.928.592,1.6-.43q-.31-.978-.63-1.954L9.7,15.557a.837.837,0,0,0,.237-.082c1.678,1.031,3.305,2.151,4.94,3.25C15.766,19.323,16.591,17.881,15.707,17.286Z" transform="translate(-4.537 -4.329)"/></g></g></g></svg>