<svg xmlns="http://www.w3.org/2000/svg" width="36.855" height="36.855" viewBox="0 0 36.855 36.855"><defs><style>.a{fill:#398e92;}.b{fill:#fff;}</style></defs><g transform="translate(0 0)"><rect class="a" width="36.855" height="36.855" transform="translate(0)"/><path class="b" d="M7.563,22.274H6.734a1.558,1.558,0,0,1-1.54-1.347H2.487A2.49,2.49,0,0,1,0,18.44a42.911,42.911,0,0,0,.77-7.258A27.6,27.6,0,0,0,.485,7.356H14.13c-.082.533-.155,1.067-.215,1.586a.569.569,0,0,0-.188-.031h-3a.57.57,0,0,0,0,1.139h3a.576.576,0,0,0,.078-.005c-.032.394-.057.778-.072,1.145h-3.01a.57.57,0,0,0,0,1.139h2.992c0,.368.019.752.044,1.141H10.723a.57.57,0,0,0,0,1.139h3a.6.6,0,0,0,.133-.015,23.879,23.879,0,0,0,.748,3.847,2.489,2.489,0,0,1-2.487,2.488H9.1A1.559,1.559,0,0,1,7.563,22.274ZM5.5,11.6c-.432.46-1.84,2.029-1.84,2.911a1.841,1.841,0,1,0,3.682,0C7.34,13.622,5.93,12.055,5.5,11.6ZM7.623,9.057h0a4.329,4.329,0,0,0-.992,1.625.991.991,0,1,0,1.983,0,4.44,4.44,0,0,0-.991-1.625ZM5.073,8.72a3.625,3.625,0,0,0-.423.721.425.425,0,0,0,.847,0A3.711,3.711,0,0,0,5.073,8.72Zm.283,7.061h0a1.278,1.278,0,0,1-1.273-1.274h.284a.992.992,0,0,0,.991.991v.283Zm8.927-9.357H.339C.163,5.406,0,4.77,0,4.766A2.489,2.489,0,0,1,2.487,2.279H4.779a2.538,2.538,0,0,1,5.049,0h2.293a2.49,2.49,0,0,1,2.487,2.487c-.015.067-.154.684-.324,1.657ZM7.356,1.761a.518.518,0,1,0,.517.518A.519.519,0,0,0,7.356,1.761Z" transform="translate(11.093 6.582)"/></g></svg>