<svg xmlns="http://www.w3.org/2000/svg" width="24" height="24" viewBox="0 0 24 24"><defs><style>.a{fill:#fff;}</style></defs><g transform="translate(7 28)"><g transform="translate(-7 -28)"><path class="a" d="M19.743,18.045l-3.831-.958-.221-.885a12.689,12.689,0,0,0,4.063-1.272.5.5,0,0,0,.242-.4A.508.508,0,0,0,19.8,14.1c-.018-.014-1.8-1.49-1.8-6.6C18,3.187,16.991,1,15,1h-.295A3.2,3.2,0,0,0,12,0C10.121,0,6,1.889,6,7.5c0,5.114-1.787,6.59-1.8,6.6a.5.5,0,0,0,.042.828A12.413,12.413,0,0,0,8.308,16.2l-.221.883-3.831.958A5.613,5.613,0,0,0,0,23.5a.5.5,0,0,0,.5.5h23a.5.5,0,0,0,.5-.5A5.612,5.612,0,0,0,19.743,18.045Z"/></g></g></svg>