<svg xmlns="http://www.w3.org/2000/svg" width="28.76" height="28.76" viewBox="0 0 28.76 28.76"><defs><style>.a{fill:#efefef;}.b{fill:#979797;}</style></defs><g transform="translate(-776.162 -592.516)"><rect class="a" width="28.76" height="28.76" transform="translate(776.162 592.517)"/><g transform="translate(786.442 600.645)"><path class="b" d="M2.339,13.268C.864,8.408,3.98,6.633,3.98,6.633a7.515,7.515,0,0,0,1.256,4.614,7.933,7.933,0,0,0,1.577-.928,16.837,16.837,0,0,1-.546,2.947A7.8,7.8,0,0,0,8.779,9.335c.6-2.454-1.144-4.918-1.144-4.918A6.581,6.581,0,0,1,6,9.167a.942.942,0,0,0,.143-.22c.207-.414.539-1.489.344-3.978A6.358,6.358,0,0,0,3.048,0C3.321,2.129,2.5,2.62.585,6.662S2.339,13.268,2.339,13.268Zm0,0" transform="translate(-0.031 0)"/></g></g></svg>