<svg xmlns="http://www.w3.org/2000/svg" width="36.855" height="36.855" viewBox="0 0 36.855 36.855"><defs><style>.a{fill:#398e92;}.b{fill:#fff;}</style></defs><g transform="translate(-605.162 -781.314)"><rect class="a" width="36.855" height="36.855" transform="translate(605.162 781.314)"/><g transform="translate(618.299 791.723)"><path class="b" d="M2.991,17.018C1.1,10.784,5.1,8.508,5.1,8.508a9.639,9.639,0,0,0,1.611,5.918,10.176,10.176,0,0,0,2.022-1.19,21.6,21.6,0,0,1-.7,3.78,10,10,0,0,0,3.223-5.043c.771-3.148-1.468-6.308-1.468-6.308a8.441,8.441,0,0,1-2.1,6.093,1.208,1.208,0,0,0,.183-.283c.265-.531.691-1.91.442-5.1A8.155,8.155,0,0,0,3.9,0c.35,2.731-.7,3.36-3.159,8.545S2.991,17.018,2.991,17.018Zm0,0" transform="translate(0 0)"/></g></g></svg>