<svg xmlns="http://www.w3.org/2000/svg" width="41.957" height="22.656" viewBox="0 0 41.957 22.656"><defs><style>.a{fill:#999;}</style></defs><g transform="translate(0.001 -23.659)"><path class="a" d="M40.162,34.163A6.85,6.85,0,0,0,35.9,31.806a13.434,13.434,0,0,1-1.769-2.61c-.066-.513-.3-.784-1.383.158a4.871,4.871,0,0,1-.912.607l-1.317-1.513a1.972,1.972,0,0,0-.818-2.5l-1.826-1.066a1.977,1.977,0,0,0-2.984,1.607h-.91a2.194,2.194,0,0,0-4.292.539l-.993.322a5.119,5.119,0,0,1-.184-1.256c0-1.435-.358-1.434-.788-1.147a17.333,17.333,0,0,1-3.5.395l0,.007A7.84,7.84,0,0,0,1.556,30.7l-.042.058c-.105.145-.225.307-.342.485l-.321.572c-.111.206-.2.439-.307.678s-.174.508-.265.779a7.747,7.747,0,0,0-.273,1.819,7.638,7.638,0,0,0,.213,2.026,7.942,7.942,0,0,0,.8,2.008,8.246,8.246,0,0,0,1.372,1.733l.413.344a4.434,4.434,0,0,0,.44.324,7.345,7.345,0,0,0,.956.563,7.655,7.655,0,0,0,2,.635,7.176,7.176,0,0,0,1.935.062,6.713,6.713,0,0,0,1.284-.244L9.33,42.6l.813.5.2-.877.875.385-.028-.874.228-.169.691.351.035-1.053c.1-.13.177-.249.238-.332.089-.135.131-.21.131-.21l-.223.111c-.147.068-.331.2-.6.319-.132.06-.266.14-.418.213s-.322.142-.5.22a9.794,9.794,0,0,1-1.212.421,6.466,6.466,0,0,1-1.487.183,6.157,6.157,0,0,1-1.639-.2,6.433,6.433,0,0,1-1.6-.676,6.17,6.17,0,0,1-.7-.505,7.214,7.214,0,0,1-.664-.621,6.679,6.679,0,0,1-.985-1.444,6.2,6.2,0,0,1-.508-1.593A5.786,5.786,0,0,1,1.92,35.2,6.082,6.082,0,0,1,2.2,33.853c.082-.2.141-.392.226-.565s.162-.34.251-.486l.256-.406.226-.294.093-.127.121-.131.2-.21.163-.175-.057-.052a5.7,5.7,0,0,1,11.4.105h1.211l.008.022h3.156V29.325s-.155-.3-.338-.748l.9-.292a2.19,2.19,0,0,0,3.972-.5h1.287a1.983,1.983,0,0,0,.6.54l1.825,1.067a1.976,1.976,0,0,0,1.957.025l.943,1.085c-.514.182-.89.272-.89.272l-1.666,1.45,1.487,1.709c-.058.065-.109.134-.165.2l-.79-.02.236.747c-.028.042-.059.083-.086.124l-.829.1.4.628c-.067.126-.126.254-.186.381l-.629.038.348.642A6.892,6.892,0,0,0,29.6,44.344c2.93,2.76,7.159,2.5,10.159-.039,0-.007,0-.014,0-.021A7.447,7.447,0,0,0,40.162,34.163ZM2.447,31.44a.358.358,0,1,1,.358-.359A.359.359,0,0,1,2.447,31.44Zm14.342-4.554a.43.43,0,1,1,.43.43A.43.43,0,0,1,16.789,26.886Zm1.037,2.734a.43.43,0,1,1,.43-.43A.43.43,0,0,1,17.826,29.62Zm4.054-1.569a.914.914,0,1,1,.647-1.56H21.88v1.291h.647A.913.913,0,0,1,21.88,28.051Zm6.459.223-1.3-.757V26.492h-.866a.67.67,0,0,1,.086-.241A.7.7,0,0,1,27.219,26l1.826,1.066a.669.669,0,0,1,.341.53l-.753.656.1.109A.674.674,0,0,1,28.339,28.275Zm4.375,2.247a.43.43,0,1,1-.042.607c-.009-.009-.01-.022-.018-.031l.093-.082-.179-.206A.429.429,0,0,1,32.714,30.522Zm-2.137,1.056a.43.43,0,1,1-.042.607A.431.431,0,0,1,30.577,31.578Zm.5,11.2c-2.258-2.126-1.978-5.2.1-7.478,2.339-1.865,5.372-2.01,7.362.277a5.19,5.19,0,0,1-7.462,7.2Zm7.913,1.258a.329.329,0,1,1,.032-.465A.33.33,0,0,1,38.991,44.035Z"/></g></svg>