<svg xmlns="http://www.w3.org/2000/svg" width="25.018" height="38.148" viewBox="0 0 25.018 38.148"><defs><style>.a{fill:#999;}</style></defs><path class="a" d="M12.953,38.148H11.533A2.668,2.668,0,0,1,8.9,35.842H4.259A4.263,4.263,0,0,1,0,31.584,76.943,76.943,0,0,0,1.318,19.151,46.838,46.838,0,0,0,.831,12.6H24.2c-.142.925-.266,1.839-.368,2.715a.974.974,0,0,0-.321-.054H18.364a.976.976,0,0,0,0,1.952h5.146a.851.851,0,0,0,.133-.009c-.057.683-.1,1.342-.123,1.96H18.364a.976.976,0,0,0,0,1.952h5.124c.007.646.032,1.3.076,1.954l-.053,0H18.364a.976.976,0,1,0,0,1.951h5.146a1,1,0,0,0,.225-.026,40.35,40.35,0,0,0,1.283,6.591,4.262,4.262,0,0,1-4.258,4.259h-5.17A2.669,2.669,0,0,1,12.953,38.148ZM9.418,19.859c-.74.788-3.154,3.474-3.154,4.985a3.153,3.153,0,1,0,6.306,0C12.57,23.337,10.157,20.648,9.418,19.859Zm3.639-4.349a7.416,7.416,0,0,0-1.7,2.785,1.7,1.7,0,1,0,3.4,0A7.634,7.634,0,0,0,13.056,15.511Zm-4.367-.576a6.259,6.259,0,0,0-.725,1.235.728.728,0,0,0,1.45.008A6.319,6.319,0,0,0,8.689,14.935Zm.485,12.093h0a2.189,2.189,0,0,1-2.182-2.183h.485a1.7,1.7,0,0,0,1.7,1.7v.485ZM24.466,11H.58C.282,9.279,0,8.174,0,8.163A4.265,4.265,0,0,1,4.259,3.9H8.185a4.347,4.347,0,0,1,8.649,0H20.76a4.263,4.263,0,0,1,4.258,4.259l0,.009c-.082.368-.3,1.381-.553,2.829ZM12.6,3.017a.887.887,0,1,0,.886.886A.888.888,0,0,0,12.6,3.017Z" transform="translate(0)"/></svg>