<svg xmlns="http://www.w3.org/2000/svg" width="27.477" height="38.178" viewBox="0 0 27.477 38.178"><defs><style>.a{fill:#fff;}</style></defs><g transform="translate(0 0.001)"><g transform="translate(0 0)"><g transform="translate(0 0)"><ellipse class="a" cx="5.938" cy="5.938" rx="5.938" ry="5.938" transform="translate(7.816)"/><path class="a" d="M75.1,204.882v3.055H78.8L76.224,196.7c-4.481,1.122-7.574,3.85-7.574,9.211v6.663a1.018,1.018,0,0,0,1.029,1.029H80.066l-.943-4.154H73.068A9.015,9.015,0,0,1,75.1,204.882Z" transform="translate(-68.65 -181.372)"/><path class="a" d="M224.324,364.577h1.784a2.088,2.088,0,1,0,0-4.177H223.35Z" transform="translate(-211.295 -332.315)"/><path class="a" d="M199.185,342.443h1.574l-.327-1.543H198.85Z" transform="translate(-188.704 -314.335)"/><path class="a" d="M158.752,188.1a28.7,28.7,0,0,0-4.668.366l2.642,11.541h3.086a3.608,3.608,0,0,1,0,7.216H151.45v4.4h14.6V196.952c1.878,2.455,2.213,10,2.244,14.658h4.177V197.981C172.475,190.407,166.326,188.1,158.752,188.1Z" transform="translate(-144.998 -173.442)"/></g></g></g></svg>