<svg xmlns="http://www.w3.org/2000/svg" width="21.432" height="41" viewBox="0 0 21.432 41"><defs><style>.a{fill:#999;}</style></defs><g transform="translate(-112.321 0)"><g transform="translate(112.321 0)"><path class="a" d="M188.675,6.623a3.087,3.087,0,0,0,2.265-1.045,3.213,3.213,0,0,0,.871-2.352,3.306,3.306,0,0,0-1-2.309A3,3,0,0,0,188.5,0a3.087,3.087,0,0,0-2.265,1.045,3.376,3.376,0,0,0-.915,2.352,3.08,3.08,0,0,0,1,2.309A3.137,3.137,0,0,0,188.675,6.623Z" transform="translate(-178.962 0)"/><path class="a" d="M133.054,94.8l-4.791-2.613-3.92-6.272a3.464,3.464,0,0,0-2.788-1.394,3.205,3.205,0,0,0-2.178.958l-5.924,6.011a1.916,1.916,0,0,0-.348.784l-.784,6.708v.174a1.487,1.487,0,0,0,1.481,1.481,1.288,1.288,0,0,0,1-.436,1.88,1.88,0,0,0,.479-.958l.61-5.75,2.091-2.091-1.917,16.029-3.4,7.579a3.05,3.05,0,0,0-.174.958,2.191,2.191,0,0,0,.653,1.612,1.925,1.925,0,0,0,1.612.566,2.016,2.016,0,0,0,1.917-1.22l3.659-8.189a1,1,0,0,1,.087-.3q.087-.218.174-.392a.774.774,0,0,0,.087-.348l.436-3.92,3.746,12.893a2.056,2.056,0,0,0,2.178,1.481,2.089,2.089,0,0,0,1.525-.653,2.191,2.191,0,0,0,.653-1.612.712.712,0,0,0-.044-.218.719.719,0,0,1-.044-.218l-5.227-17.859.61-5.837L126,94.1a1.554,1.554,0,0,0,.436.436l5.14,2.875a2.853,2.853,0,0,0,.7.174,1.364,1.364,0,0,0,1.045-.479,1.575,1.575,0,0,0,.436-1.089A1.365,1.365,0,0,0,133.054,94.8Z" transform="translate(-112.321 -77.159)"/></g></g></svg>