<svg xmlns="http://www.w3.org/2000/svg" width="36.855" height="36.855" viewBox="0 0 36.855 36.855"><defs><style>.a{fill:#398e92;}.b{fill:#fff;}</style></defs><g transform="translate(0 0)"><rect class="a" width="36.855" height="36.855" transform="translate(0 0)"/><g transform="translate(11.407 8.621)"><g transform="translate(0 0)"><g transform="translate(0 0)"><ellipse class="b" cx="2.951" cy="2.951" rx="2.951" ry="2.951" transform="translate(3.884)"/><path class="b" d="M71.857,200.766v1.518h1.836L72.414,196.7c-2.227.558-3.764,1.913-3.764,4.577v3.311a.506.506,0,0,0,.511.511h5.162l-.469-2.064H70.846A4.48,4.48,0,0,1,71.857,200.766Z" transform="translate(-68.65 -189.083)"/><path class="b" d="M223.834,362.476h.887a1.038,1.038,0,1,0,0-2.076H223.35Z" transform="translate(-217.359 -346.443)"/><path class="b" d="M199.017,341.667h.782l-.163-.767h-.786Z" transform="translate(-193.808 -327.698)"/><path class="b" d="M155.079,188.1a14.266,14.266,0,0,0-2.32.182l1.313,5.735h1.534a1.793,1.793,0,0,1,0,3.586H151.45v2.184h7.257V192.5c.933,1.22,1.1,4.969,1.115,7.284H161.9V193.01C161.9,189.246,158.843,188.1,155.079,188.1Z" transform="translate(-148.244 -180.816)"/></g></g></g></g></svg>