<svg xmlns="http://www.w3.org/2000/svg" width="21.953" height="24" viewBox="0 0 21.953 24"><defs><style>.a{fill:#fff;}</style></defs><path class="a" d="M138.814,7.355c.157,2.061.977,1.173,1.146,2.076a4.486,4.486,0,0,0,2.438,2.963,3.741,3.741,0,0,0,1.5.337h.011a3.74,3.74,0,0,0,1.5-.337,4.486,4.486,0,0,0,2.438-2.963c.169-.9.989-.015,1.146-2.076,0-.821-.448-1.026-.448-1.026s.228-1.216.317-2.151c.11-1.166-.681-4.178-4.9-4.178h-.122c-4.219,0-5.01,3.012-4.9,4.178.089.936.317,2.151.317,2.151S138.814,6.534,138.814,7.355Z" transform="translate(-132.959)"/><path class="a" d="M40.944,284.67c-2.11-1.083-5.168-2.435-5.314-2.483h0a.81.81,0,0,0-.274-.048.823.823,0,0,0-.775.554h0c-.545,1.324-1.545,3.683-2.166,4.821l-.15-3.19s.933-2,1.035-2.18c.24-.429.024-.794-.427-.794H30.106c-.451,0-.667.365-.427.794.1.183,1.035,2.18,1.035,2.18l-.15,3.19c-.621-1.138-1.621-3.5-2.166-4.821h0a.823.823,0,0,0-.775-.554.81.81,0,0,0-.274.048h0c-.147.048-3.2,1.4-5.314,2.483-.947.486-1.519,1.091-1.519,1.727v5.009H42.464V286.4C42.463,285.761,41.892,285.156,40.944,284.67Z" transform="translate(-20.509 -267.407)"/></svg>