<svg xmlns="http://www.w3.org/2000/svg" width="28.764" height="28.764" viewBox="0 0 28.764 28.764"><defs><style>.a{fill:#ffda65;}.b{fill:#816c2a;}</style></defs><g transform="translate(-0.001)"><rect class="a" width="28.763" height="28.763" transform="translate(0)"/><g transform="translate(8.006 7.14)"><g transform="translate(0 0)"><g transform="translate(0 0)"><g transform="translate(10.87 6.556)"><path class="b" d="M397.349,266.29a.405.405,0,0,1-.406.408l-2.033.005a.407.407,0,0,1,0-.814l2.033-.005a.407.407,0,0,1,.408.406" transform="translate(-394.093 -263.825)"/><path class="b" d="M382.758,194.117a.406.406,0,0,1-.193.542l-1.836.872a.407.407,0,0,1-.349-.736l1.836-.872a.407.407,0,0,1,.542.193" transform="translate(-380.147 -193.885)"/><path class="b" d="M383,309.256a.406.406,0,0,0-.2-.541l-1.841-.863a.406.406,0,1,0-.345.736l1.841.863a.406.406,0,0,0,.541-.2" transform="translate(-380.381 -304.556)"/></g><path class="b" d="M10.93-29.738a2.548,2.548,0,0,1-1.275-.915c-.309-.491.063-.619-.063-1.988-.115-1.254-1.842-2.6-3.941-2.739a5.343,5.343,0,0,0-2.962.688,4.817,4.817,0,0,0-1.629,7.36c1.818,2.627.112,3.814.112,3.814s.068.553,1.185,1.3a3.029,3.029,0,0,0,2.489.239s.452-1.608,1.931-1.46A4.762,4.762,0,0,0,9.7-23.859c.352-.34-.061-.767.219-1.718-.962-.094-1.49-.553-1.541-1.2a1.809,1.809,0,0,0,1.812-.608c-.008-.22-.03-.686-.051-1,.944-.273,1.305-1.2.789-1.357" transform="translate(0 35.391)"/></g></g></g></g></svg>