<svg xmlns="http://www.w3.org/2000/svg" width="36.855" height="36.855" viewBox="0 0 36.855 36.855"><defs><style>.a{fill:#398e92;}.b{fill:#fff;}</style></defs><g transform="translate(0.001 0.001)"><rect class="a" width="36.855" height="36.855" transform="translate(0)"/><g transform="translate(10.258 9.149)"><g transform="translate(0 0)"><g transform="translate(0 0)"><g transform="translate(13.928 8.4)"><path class="b" d="M398.15,266.4a.52.52,0,0,1-.52.523l-2.605.007a.521.521,0,0,1,0-1.043l2.605-.007a.521.521,0,0,1,.522.52" transform="translate(-393.978 -263.246)"/><path class="b" d="M383.492,194.182a.521.521,0,0,1-.247.695l-2.353,1.118a.522.522,0,0,1-.447-.943l2.353-1.117a.521.521,0,0,1,.694.248" transform="translate(-380.147 -193.885)"/><path class="b" d="M383.739,309.662a.521.521,0,0,0-.25-.693l-2.359-1.106a.521.521,0,1,0-.442.943l2.358,1.106a.52.52,0,0,0,.693-.25" transform="translate(-380.379 -303.639)"/></g><path class="b" d="M14.005-28.147a3.265,3.265,0,0,1-1.634-1.172c-.4-.629.081-.793-.08-2.548-.148-1.606-2.36-3.334-5.049-3.51a6.847,6.847,0,0,0-3.8.882C.1-32.666-1.225-28.8,1.359-25.064c2.329,3.366.144,4.887.144,4.887s.087.709,1.518,1.661a3.881,3.881,0,0,0,3.189.306s.579-2.06,2.474-1.871c1.358.2,3.265-.067,3.747-.534.451-.436-.079-.983.281-2.2-1.232-.12-1.909-.708-1.974-1.536a2.318,2.318,0,0,0,2.322-.779c-.01-.281-.039-.879-.066-1.279,1.209-.35,1.673-1.543,1.011-1.739" transform="translate(0 35.391)"/></g></g></g></g></svg>