<svg xmlns="http://www.w3.org/2000/svg" width="26" height="26" viewBox="0 0 26 26">
  <g id="cancel" transform="translate(-1432 -805)">
    <path id="Path_449" data-name="Path 449" d="M3,0H23a3,3,0,0,1,3,3V23a3,3,0,0,1-3,3H3a3,3,0,0,1-3-3V3A3,3,0,0,1,3,0Z" transform="translate(1432 805)" fill="#e0e9e9"/>
    <g id="delete-button" transform="translate(1438 811)">
      <path id="Path_450" data-name="Path 450" d="M6.7,0a6.7,6.7,0,1,0,6.7,6.7A6.7,6.7,0,0,0,6.7,0Zm0,12.243A5.547,5.547,0,1,1,12.243,6.7,5.554,5.554,0,0,1,6.7,12.243Z" fill="#577476"/>
      <path id="Path_451" data-name="Path 451" d="M56.571,51.394a.574.574,0,0,0-.811,0L53.98,53.174,52.2,51.394a.574.574,0,1,0-.811.811l1.779,1.779-1.779,1.779a.574.574,0,1,0,.812.811L53.98,54.8l1.779,1.779a.574.574,0,0,0,.812-.811l-1.779-1.779,1.779-1.779A.574.574,0,0,0,56.571,51.394Z" transform="translate(-47.285 -47.289)" fill="#577476"/>
    </g>
  </g>
</svg>
