<svg xmlns="http://www.w3.org/2000/svg" width="35" height="35" viewBox="0 0 35 35">
  <g id="clone" transform="translate(-1818 -795)">
    <path id="Path_393" data-name="Path 393" d="M5.833,0H29.167A5.833,5.833,0,0,1,35,5.833V29.167A5.833,5.833,0,0,1,29.167,35H5.833A5.833,5.833,0,0,1,0,29.167V5.833A5.833,5.833,0,0,1,5.833,0Z" transform="translate(1818 795)" fill="#398e92"/>
    <path id="copy" d="M11.434,21.6H3.375A3.379,3.379,0,0,1,0,18.226V6.793A3.379,3.379,0,0,1,3.375,3.417h8.058a3.379,3.379,0,0,1,3.375,3.375V18.226A3.379,3.379,0,0,1,11.434,21.6ZM3.375,5.105A1.69,1.69,0,0,0,1.688,6.793V18.226a1.69,1.69,0,0,0,1.688,1.688h8.058a1.69,1.69,0,0,0,1.688-1.688V6.793a1.69,1.69,0,0,0-1.688-1.688ZM18.184,16.117V3.375A3.379,3.379,0,0,0,14.809,0H5.443a.844.844,0,0,0,0,1.688h9.366A1.69,1.69,0,0,1,16.5,3.375V16.117a.844.844,0,1,0,1.688,0Zm0,0" transform="translate(1826 802)" fill="#fff"/>
  </g>
</svg>
