<svg xmlns="http://www.w3.org/2000/svg" width="33.15" height="33.15" viewBox="0 0 33.15 33.15"><defs><style>.a{fill:#287f88;}</style></defs><path class="a" d="M27.27,24.925,21.978,23.6l-.305-1.222a17.527,17.527,0,0,0,5.612-1.757.692.692,0,0,0,.334-.55.7.7,0,0,0-.264-.591c-.025-.019-2.493-2.058-2.493-9.122,0-5.957-1.394-8.978-4.144-8.978h-.407A4.419,4.419,0,0,0,16.575,0c-2.6,0-8.288,2.609-8.288,10.359,0,7.064-2.468,9.1-2.486,9.116a.689.689,0,0,0,.058,1.144,17.145,17.145,0,0,0,5.616,1.762L11.17,23.6,5.879,24.925A7.753,7.753,0,0,0,0,32.459a.691.691,0,0,0,.691.691H32.459a.693.693,0,0,0,.691-.693A7.752,7.752,0,0,0,27.27,24.925Z"/></svg>