<svg xmlns="http://www.w3.org/2000/svg" width="17.661" height="17.662" viewBox="0 0 17.661 17.662"><defs><style>.a{fill:#fff;}.b{fill:#3d8c9a;}</style></defs><g transform="translate(-0.462 0.001)"><path class="a" d="M15.368,17.662H3.216A2.755,2.755,0,0,1,.752,13.676L6.828,1.524a2.755,2.755,0,0,1,4.929,0l6.075,12.152a2.755,2.755,0,0,1-2.464,3.986Zm0,0" transform="translate(0 0)"/><g transform="translate(8.446 4.415)"><path class="b" d="M241.879,128.2c.542,0,.981.247.981.551v6.611c0,.3-.439.551-.981.551s-.981-.247-.981-.551v-6.611C240.9,128.45,241.337,128.2,241.879,128.2Zm0,0" transform="translate(-240.898 -128.203)"/><path class="b" d="M240.9,384.2h1.963v1.1H240.9Zm0,0" transform="translate(-240.898 -375.388)"/></g></g></svg>