<svg xmlns="http://www.w3.org/2000/svg" width="25" height="25" viewBox="0 0 25 25">
  <g id="inlineEdit" transform="translate(-1707 -556)">
    <path id="Rectangle_1231" data-name="Rectangle 1231" d="M5,0H19a6,6,0,0,1,6,6V20a5,5,0,0,1-5,5H5a5,5,0,0,1-5-5V5A5,5,0,0,1,5,0Z" transform="translate(1707 556)" fill="none"/>
    <g id="edit" transform="translate(1713 561.739)">
      <path id="Path_391" data-name="Path 391" d="M12.971,46.613a.351.351,0,0,0-.35.351v3.119a1.053,1.053,0,0,1-1.05,1.054H1.75A1.053,1.053,0,0,1,.7,50.084V40.929a1.053,1.053,0,0,1,1.05-1.054H4.858a.351.351,0,0,0,0-.7H1.75A1.755,1.755,0,0,0,0,40.929v9.155A1.755,1.755,0,0,0,1.75,51.84h9.821a1.755,1.755,0,0,0,1.75-1.757V46.964a.351.351,0,0,0-.35-.351Zm0,0" transform="translate(0 -37.65)" fill="#4c6881"/>
      <path id="Path_392" data-name="Path 392" d="M116.891.688a1.459,1.459,0,0,0-2.063,0l-5.783,5.783a.324.324,0,0,0-.083.143l-.76,2.745a.324.324,0,0,0,.4.4L111.346,9a.324.324,0,0,0,.143-.083l5.783-5.783a1.46,1.46,0,0,0,0-2.063Zm-7.14,5.994,4.733-4.733,1.526,1.526-4.733,4.733Zm-.3.612,1.219,1.22-1.687.467Zm7.366-4.621-.344.344L114.943,1.49l.344-.344a.81.81,0,0,1,1.146,0l.38.38A.812.812,0,0,1,116.813,2.673Zm0,0" transform="translate(-103.698 0)" fill="#4c6881"/>
    </g>
  </g>
</svg>
