<svg xmlns="http://www.w3.org/2000/svg" width="170" height="36.76" viewBox="0 0 170 36.76"><g transform="translate(0 0.333)"><path d="M1243.006-220.515c0-2.092.011-4.185-.009-6.278,0-.426.126-.552.549-.55q4.313.023,8.625,0c.4,0,.526.12.522.525-.011,1.261.005,1.261-1.259,1.261-1.974,0-3.947.01-5.92-.009-.378,0-.5.094-.488.481q.041,1.53,0,3.062c-.01.391.086.524.5.519,1.922-.023,3.845,0,5.767-.019.442,0,.591.112.582.571-.025,1.216,0,1.216-1.2,1.216-1.718,0-3.437.01-5.155-.008-.369,0-.5.077-.494.475q.042,1.658,0,3.317c-.01.4.133.474.5.472,2.3-.015,4.594,0,6.89-.018.458,0,.578.137.57.581-.023,1.208,0,1.208-1.208,1.208-2.705,0-5.41-.012-8.115.011-.5,0-.676-.1-.667-.643C1243.026-216.4,1243.006-218.456,1243.006-220.515Z" transform="translate(-1082.984 239.846)" fill="#3fcbc5"/><path d="M958.435-228.093a8.5,8.5,0,0,1,4.088,1.036c.258.155.318.281.174.556a7.972,7.972,0,0,0-.4.988c-.1.282-.22.347-.508.168a6.4,6.4,0,0,0-4.835-.823,2.1,2.1,0,0,0-1.5.957,1.592,1.592,0,0,0,.652,2.372,14.889,14.889,0,0,0,3.142.963,7.381,7.381,0,0,1,3.27,1.526,3.543,3.543,0,0,1,.418,3.923,4.575,4.575,0,0,1-3.546,2.083,9.372,9.372,0,0,1-4.882-.607c-.142-.056-.279-.123-.416-.191-1.35-.663-1.4-.841-.658-2.118.124-.214.192-.251.413-.093a7.372,7.372,0,0,0,5.159,1.29,2.88,2.88,0,0,0,1.886-.774,1.708,1.708,0,0,0-.842-2.806c-1.079-.407-2.223-.586-3.323-.92a6.057,6.057,0,0,1-2.572-1.25,3.131,3.131,0,0,1-.843-3.353,3.92,3.92,0,0,1,3.2-2.721A7.106,7.106,0,0,1,958.435-228.093Z" transform="translate(-832.452 240.496)" fill="#3fcbc5"/><path d="M1153.025-220.539c0-2.092.01-4.184-.009-6.276,0-.406.119-.526.522-.524q4.337.022,8.674,0c.374,0,.5.111.5.5,0,1.289.013,1.289-1.28,1.289-1.973,0-3.946.007-5.919-.007-.345,0-.472.081-.466.449q.033,1.836,0,3.674c-.007.373.129.448.469.445,1.922-.014,3.844,0,5.766-.015.448,0,.63.09.616.588-.034,1.2-.007,1.2-1.221,1.2-1.718,0-3.436.012-5.153-.009-.393,0-.482.119-.477.491.02,1.514,0,3.028.016,4.541.005.383-.118.523-.494.5a5.93,5.93,0,0,0-.969,0c-.437.041-.591-.1-.586-.564C1153.038-216.354,1153.025-218.447,1153.025-220.539Z" transform="translate(-1005.258 239.843)" fill="#3fcbc5"/><path d="M699.856-226.048q-.735,2.09-1.466,4.165c-.85,2.42-1.717,4.834-2.534,7.265-.164.488-.48.351-.793.392-.34.044-.464-.115-.565-.416-1.411-4.2-2.837-8.4-4.244-12.6-.054-.162-.346-.394-.018-.554a.792.792,0,0,1,.985.3q.773,2.293,1.537,4.589,1.134,3.383,2.27,6.764c.041.123.1.242.193.489.208-.588.378-1.056.54-1.527,1.175-3.4,2.359-6.8,3.512-10.216.131-.387.339-.411.667-.425a.519.519,0,0,1,.609.431q1.981,5.837,4,11.669c.209-.075.189-.278.239-.422q1.868-5.5,3.721-11.007c.241-.716.24-.716,1.2-.622l-.955,2.841c-1.148,3.413-2.3,6.824-3.436,10.242a.6.6,0,0,1-.689.479.636.636,0,0,1-.731-.5q-1.885-5.494-3.813-10.974C700.045-225.806,700.054-225.967,699.856-226.048Z" transform="translate(-605.37 240.296)" fill="#788f95"/><path d="M380.083-214.478c-4.124,0-6.81-2.079-7.487-5.459a6.784,6.784,0,0,1,6.694-8.331,6.569,6.569,0,0,1,4.661,1.58c.232.206.378.359.081.642-.245.234-.371.372-.717.064A5.692,5.692,0,0,0,377.344-227a5.446,5.446,0,0,0-3.791,4.537,5.829,5.829,0,0,0,4.807,7,5.616,5.616,0,0,0,4.966-1.244c.447-.4.563,0,.784.191.312.268-.017.369-.156.492A6.182,6.182,0,0,1,380.083-214.478Z" transform="translate(-330.986 240.646)" fill="#788f95"/><path d="M1048.44-214.369c-1.841-4.033-3.7-8.06-5.488-12.114a1.5,1.5,0,0,0-1.7-1.123,1.2,1.2,0,0,0-1.2.82c-1.454,3.261-2.942,6.507-4.416,9.76-.412.909-.81,1.824-1.228,2.73-.132.286-.038.361.239.356a11.765,11.765,0,0,1,1.224.006.652.652,0,0,0,.729-.482c.363-.857.756-1.7,1.116-2.559a.489.489,0,0,1,.536-.344c1.054.016,2.109.006,3.164.006s2.11.009,3.164-.006a.488.488,0,0,1,.536.344c.325.78.7,1.541,1.009,2.327.2.5.444.806,1.04.715a5.944,5.944,0,0,1,1.019-.008C1048.541-213.933,1048.579-214.065,1048.44-214.369Zm-4.571-4.617c-1.631-.007-3.262,0-4.894-.006-.159,0-.388.04-.255-.261l2.7-6.1c.575,1.294,1.107,2.49,1.638,3.687.342.773.674,1.55,1.028,2.317C1044.205-219.088,1044.183-218.985,1043.87-218.986Z" transform="translate(-902.758 240.08)" fill="#3fcbc5"/><path d="M866.326-223.86a6.471,6.471,0,0,0-6.077-3.761c-1.783-.076-3.571,0-5.357-.023-.37,0-.448.117-.445.463.015,2.109.008,4.218.008,6.327,0,2.126.006,4.252-.007,6.378,0,.327.082.435.423.432,1.82-.016,3.642.045,5.459-.022a6.592,6.592,0,0,0,5.211-2.493A6.7,6.7,0,0,0,866.326-223.86Zm-6.106,8.895c-1.444.06-2.892,0-4.338.018-.337,0-.432-.1-.43-.435.014-1.837.007-3.675.007-5.512,0-1.786.01-3.573-.008-5.359,0-.375.092-.5.481-.49,1.378.023,2.756,0,4.134.012a5.655,5.655,0,0,1,5.772,4.447A5.76,5.76,0,0,1,860.219-214.965Z" transform="translate(-747.35 240.117)" fill="#788f95"/><path d="M490.342-218.7a4.1,4.1,0,0,0,3.116-3.681,4.236,4.236,0,0,0-2.305-4.543,5.878,5.878,0,0,0-2.557-.615c-1.666-.027-3.334,0-5-.016-.349,0-.418.118-.417.438q.014,6.353,0,12.706c0,.422.162.463.505.457.327-.006.532-.012.52-.449-.032-1.173,0-2.347-.019-3.52-.007-.362.109-.456.462-.457a40.762,40.762,0,0,0,4.28-.074.673.673,0,0,1,.7.356c.8,1.16,1.671,2.278,2.425,3.468a1.3,1.3,0,0,0,1.611.612Zm-.951-.7a38.466,38.466,0,0,1-4.943.128c-.3.008-.259-.2-.259-.382q0-1.659,0-3.318c0-1.089,0-2.178,0-3.267,0-.173-.065-.409.241-.4a30.765,30.765,0,0,1,5.193.147,3.634,3.634,0,0,1,2.157,5.763A3.514,3.514,0,0,1,489.39-219.407Z" transform="translate(-426.638 240.035)" fill="#788f95"/><path d="M589.564-222.925a6.748,6.748,0,0,0-6.859-5.326,6.85,6.85,0,0,0-6.877,8.535,6.814,6.814,0,0,0,6.978,5.253A6.833,6.833,0,0,0,589.564-222.925Zm-6.9,7.56a5.852,5.852,0,0,1-6.01-6.084,5.856,5.856,0,0,1,6.04-5.9,5.835,5.835,0,0,1,6,6.033A5.839,5.839,0,0,1,582.664-215.365Z" transform="translate(-506.513 240.631)" fill="#788f95"/><g transform="translate(1252 1348.667)"><circle cx="18.38" cy="18.38" r="18.38" transform="translate(-1252 -1349)" fill="#fff"/><path d="M73.643-287.368h.672c5.679,0,11.359.035,17.037-.013a7.158,7.158,0,0,0,7-4.953A7.206,7.206,0,0,0,95.5-300.67a7.086,7.086,0,0,0-3.974-1.225c-2.49-.032-4.98-.008-7.47-.01a1.49,1.49,0,0,1-1.633-1.5,1.549,1.549,0,0,1,1.658-1.553c3.906,0,7.811-.01,11.716.01.462,0,.585-.124.556-.569-.039-.611-.021-1.228,0-1.841.007-.278-.063-.388-.366-.387-4.11.009-8.221-.045-12.33.031A3.934,3.934,0,0,0,80-305.179a4.169,4.169,0,0,0,.465,4.341,4.165,4.165,0,0,0,3.612,1.733q3.633-.008,7.265,0a4.472,4.472,0,0,1,3.926,2.142,4.45,4.45,0,0,1-3.373,6.739c-1.483.1-2.963.054-4.443.058-5.219.014-10.437,0-15.656.015a.946.946,0,0,1-.907-.5,17.965,17.965,0,0,1-2.7-7.5,17.93,17.93,0,0,1,2.1-11.163,18.249,18.249,0,0,1,7.316-7.315,17.484,17.484,0,0,1,6.687-2.133A18.111,18.111,0,0,1,97.9-314.814a7.471,7.471,0,0,1,1.176,1.11c-.189.195-.406.121-.6.121q-7.265.006-14.531,0a9.776,9.776,0,0,0-6.313,2.188,9.938,9.938,0,0,0-3.839,8.576,10.166,10.166,0,0,0,7.812,9.306,8.414,8.414,0,0,0,1.967.237q3.914,0,7.828,0a1.337,1.337,0,0,0,1.3-.717,1.345,1.345,0,0,0-.109-1.489,1.528,1.528,0,0,0-1.387-.589c-2.456,0-4.913-.041-7.367.007a7.454,7.454,0,0,1-7.284-7.275,7.527,7.527,0,0,1,5.953-7.327,6.222,6.222,0,0,1,1.214-.125c5.8-.008,11.6,0,17.4-.014a.794.794,0,0,1,.783.41,18.509,18.509,0,0,1,2.728,7.593,17.9,17.9,0,0,1-1.858,10.663,18.3,18.3,0,0,1-7.739,7.864A17.962,17.962,0,0,1,84.8-282.184,17.693,17.693,0,0,1,74.6-286.436,5.224,5.224,0,0,1,73.643-287.368Z" transform="translate(-1320.026 -1030.13)" fill="#3fcbc5"/></g></g></svg>