<svg xmlns="http://www.w3.org/2000/svg" width="26" height="26" viewBox="0 0 26 26">
  <g id="save" transform="translate(-1353 -805)">
    <path id="Path_449" data-name="Path 449" d="M3,0H23a3,3,0,0,1,3,3V23a3,3,0,0,1-3,3H3a3,3,0,0,1-3-3V3A3,3,0,0,1,3,0Z" transform="translate(1353 805)" fill="#e0e9e9"/>
    <g id="done" transform="translate(1359 811)">
      <g id="Group_1262" data-name="Group 1262" transform="translate(3.432 4.26)">
        <g id="Group_1261" data-name="Group 1261">
          <path id="Path_452" data-name="Path 452" d="M114.621,135.04l-3.257,3.318-1.669-1.676-.9.9,2.631,2.625,4.226-4.1Z" transform="translate(-108.8 -135.04)" fill="#577476"/>
        </g>
      </g>
      <g id="Group_1264" data-name="Group 1264">
        <g id="Group_1263" data-name="Group 1263">
          <path id="Path_453" data-name="Path 453" d="M6.73,0a6.73,6.73,0,1,0,6.73,6.73A6.73,6.73,0,0,0,6.73,0Zm0,12.241A5.512,5.512,0,1,1,12.241,6.73,5.512,5.512,0,0,1,6.73,12.241Z" fill="#577476"/>
        </g>
      </g>
    </g>
  </g>
</svg>
