<svg xmlns="http://www.w3.org/2000/svg" width="17.6" height="17.6" viewBox="0 0 17.6 17.6">
  <g id="save_white" transform="translate(14362 12751)">
    <path id="Subtraction_1" data-name="Subtraction 1" d="M8.8,17.6a8.8,8.8,0,1,1,8.8-8.8A8.81,8.81,0,0,1,8.8,17.6ZM5.9,8.628a.488.488,0,0,0-.343.14.479.479,0,0,0-.144.343.489.489,0,0,0,.14.346L7.261,11.18a.486.486,0,0,0,.69,0l4.095-4.071a.492.492,0,0,0,0-.69.486.486,0,0,0-.69,0L7.612,10.148,6.244,8.772A.487.487,0,0,0,5.9,8.628Z" transform="translate(-14362 -12751)" fill="#fff"/>
  </g>
</svg>
