<svg xmlns="http://www.w3.org/2000/svg" width="24" height="24" viewBox="0 0 24 24"><path d="M23.928,10.668a.781.781,0,0,0-.771-.591,2.65,2.65,0,0,1-1.814-4.612.666.666,0,0,0,.073-.9,11.875,11.875,0,0,0-1.9-1.92.668.668,0,0,0-.912.074,2.766,2.766,0,0,1-2.993.672A2.666,2.666,0,0,1,13.988.781.666.666,0,0,0,13.4.08,11.981,11.981,0,0,0,10.7.073a.668.668,0,0,0-.594.687A2.67,2.67,0,0,1,8.462,3.32a2.773,2.773,0,0,1-2.971-.676.669.669,0,0,0-.906-.076A11.919,11.919,0,0,0,2.645,4.487a.668.668,0,0,0,.072.912,2.659,2.659,0,0,1,.671,2.994A2.774,2.774,0,0,1,.776,10.015a.652.652,0,0,0-.693.589,12.021,12.021,0,0,0-.005,2.729.794.794,0,0,0,.787.59,2.632,2.632,0,0,1,2.469,1.644,2.668,2.668,0,0,1-.671,2.967.667.667,0,0,0-.073.9,11.918,11.918,0,0,0,1.9,1.921.667.667,0,0,0,.913-.072,2.762,2.762,0,0,1,2.992-.673,2.661,2.661,0,0,1,1.624,2.6.667.667,0,0,0,.589.7,11.944,11.944,0,0,0,2.7.007.668.668,0,0,0,.594-.687,2.667,2.667,0,0,1,1.642-2.559,2.769,2.769,0,0,1,2.972.676.671.671,0,0,0,.906.076,11.947,11.947,0,0,0,1.941-1.919.666.666,0,0,0-.072-.912,2.659,2.659,0,0,1-.672-2.994,2.687,2.687,0,0,1,2.455-1.627l.148,0a.668.668,0,0,0,.7-.588A12.01,12.01,0,0,0,23.928,10.668ZM12.022,16.028a4,4,0,1,1,4-4A4.007,4.007,0,0,1,12.022,16.028Z" transform="translate(-0.003 0)" fill="#fff" fill-rule="evenodd"/></svg>