<svg xmlns="http://www.w3.org/2000/svg" width="36.422" height="35.004" viewBox="0 0 36.422 35.004"><defs><style>.a{fill:#fff;}</style></defs><g transform="translate(-0.001 0.001)"><g transform="translate(0 0)"><g transform="translate(0 0)"><g transform="translate(28.026 16.903)"><path class="a" d="M401.841,266.93a1.046,1.046,0,0,1-1.046,1.051l-5.242.014a1.049,1.049,0,0,1-.005-2.1l5.243-.014a1.049,1.049,0,0,1,1.052,1.047" transform="translate(-393.445 -260.576)"/><path class="a" d="M386.878,194.484a1.048,1.048,0,0,1-.5,1.4l-4.735,2.249a1.05,1.05,0,0,1-.9-1.9l4.735-2.248a1.049,1.049,0,0,1,1.4.5" transform="translate(-380.147 -193.885)"/><path class="a" d="M387.132,311.534a1.048,1.048,0,0,0-.5-1.395l-4.748-2.225a1.047,1.047,0,1,0-.889,1.9l4.746,2.226a1.047,1.047,0,0,0,1.394-.5" transform="translate(-380.37 -299.414)"/></g><path class="a" d="M28.183-20.814a6.571,6.571,0,0,1-3.288-2.359c-.8-1.267.164-1.595-.161-5.126-.3-3.233-4.749-6.709-10.16-7.063a13.777,13.777,0,0,0-7.638,1.775C.2-29.906-2.466-22.125,2.734-14.61c4.687,6.773.289,9.834.289,9.834S3.2-3.35,6.079-1.434,12.5-.817,12.5-.817s1.166-4.146,4.978-3.764c2.734.4,6.57-.134,7.54-1.074.908-.878-.158-1.977.565-4.429-2.48-.242-3.842-1.425-3.973-3.091,2.752.267,3.887-.606,4.673-1.568-.021-.566-.079-1.768-.132-2.573,2.434-.7,3.366-3.106,2.034-3.5" transform="translate(0 35.391)"/></g></g></g></svg>