<svg xmlns="http://www.w3.org/2000/svg" width="26" height="26" viewBox="0 0 26 26"><defs><style>.a{fill:#dfdfdf;}.b{fill:#7e7e7e;}</style></defs><g transform="translate(-1562 -5)"><path class="a" d="M3,0H23a3,3,0,0,1,3,3V23a3,3,0,0,1-3,3H3a3,3,0,0,1-3-3V3A3,3,0,0,1,3,0Z" transform="translate(1562 5)"/><g transform="translate(1566 -77.25)"><g transform="translate(0 89.25)"><path class="b" d="M9.2,89.25A9.858,9.858,0,0,0,0,95.525a9.887,9.887,0,0,0,18.408,0A9.858,9.858,0,0,0,9.2,89.25Zm0,10.459a4.184,4.184,0,1,1,4.184-4.184A4.143,4.143,0,0,1,9.2,99.709Zm0-6.694a2.51,2.51,0,1,0,2.51,2.51A2.465,2.465,0,0,0,9.2,93.015Z" transform="translate(0 -89.25)"/></g></g></g></svg>