<svg xmlns="http://www.w3.org/2000/svg" width="14.051" height="27.671" viewBox="0 0 14.051 27.671">
  <g id="Event_Details" data-name="Event Details" transform="translate(-0.5)">
    <path id="Path_369" data-name="Path 369" d="M87.651,48.916a.54.54,0,0,0,.689-.331l.007-.02a.54.54,0,0,0-1.02-.358l-.007.02A.54.54,0,0,0,87.651,48.916Zm0,0" transform="translate(-82.099 -45.26)" fill="#787878"/>
    <path id="Path_370" data-name="Path 370" d="M170.231,167.728v.007a.54.54,0,0,0,.513.566h.027a.541.541,0,0,0,.539-.514v-.019a.541.541,0,0,0-1.08-.04Zm0,0" transform="translate(-160.557 -158.171)" fill="#787878"/>
    <path id="Path_371" data-name="Path 371" d="M14.552,12.383a1.407,1.407,0,0,0-1.274-1.4,5.891,5.891,0,0,0,.136-1.26c0-2.613-1.5-3.952-2.829-5.134C9.361,3.5,8.205,2.471,8.065.5A.54.54,0,0,0,7.19.117a5.72,5.72,0,0,0-.937.94.54.54,0,0,0,.849.669l.059-.073A7.586,7.586,0,0,0,9.865,5.4c1.324,1.179,2.467,2.2,2.467,4.327a4.809,4.809,0,0,1-.166,1.254H6.988a2.838,2.838,0,0,1,.757-1.757,4.507,4.507,0,0,0,.927-1.779,4.151,4.151,0,0,1,.69.908.54.54,0,1,0,.949-.518A6.151,6.151,0,0,0,8.549,5.911a.54.54,0,0,0-.863.454A3.023,3.023,0,0,1,6.88,8.572a3.853,3.853,0,0,0-.973,2.406H2.877a5,5,0,0,1-.158-1.254,4.92,4.92,0,0,1,.687-2.809A4.636,4.636,0,0,0,5.332,8.4a.54.54,0,0,0,.749-.646A7.553,7.553,0,0,1,5.92,4.65.54.54,0,0,0,4.85,4.492,9.415,9.415,0,0,0,4.8,6.833a3.093,3.093,0,0,1-.889-1.208.54.54,0,0,0-.949-.072A6.483,6.483,0,0,0,1.638,9.724a6.116,6.116,0,0,0,.13,1.261A1.4,1.4,0,0,0,1.5,13.727a6.427,6.427,0,0,0,2.861,3.395,1.4,1.4,0,0,0,.565,2.548l.368,5.191H5.148a1.405,1.405,0,0,0,0,2.81H9.9a1.405,1.405,0,1,0,0-2.81H9.761l.368-5.191a1.4,1.4,0,0,0,.565-2.548,6.426,6.426,0,0,0,2.861-3.395,1.408,1.408,0,0,0,1-1.344ZM1.905,12.059H13.146a.324.324,0,0,1,0,.649H1.905a.324.324,0,1,1,0-.649Zm7.038,9.053L6.191,22.28l-.184-2.592H9.044Zm1.285,5.154a.329.329,0,0,1-.324.324H5.148a.324.324,0,1,1,0-.649H9.9a.329.329,0,0,1,.324.324ZM6.374,24.861l-.1-1.441,2.585-1.1-.18,2.538ZM9.9,18.607H5.148a.324.324,0,0,1,0-.649H9.9a.324.324,0,0,1,0,.649ZM7.526,16.878a5.373,5.373,0,0,1-4.836-3.09h9.672A5.373,5.373,0,0,1,7.526,16.878Zm0,0" transform="translate(0 0)" fill="#787878"/>
  </g>
</svg>
