<svg id="participatingTeams" xmlns="http://www.w3.org/2000/svg" width="22.71" height="20.817" viewBox="0 0 22.71 20.817">
  <g id="Group_575" data-name="Group 575" transform="translate(0 0)">
    <path id="Path_351" data-name="Path 351" d="M22.652,10.626,18.867,4.57a.378.378,0,0,0-.164-.144l-2.89-1.314h0L14.54,2.534a.378.378,0,0,0-.528.274,3.216,3.216,0,0,1-2.69,2.932s-.009,0-.013,0c-.076.01-.129.013-.128.014l-.023,0h-.012l-.044,0-.031,0-.058-.01-.049-.009-.07-.017-.064-.016c-.025-.007-.054-.017-.081-.025l-.077-.025c-.028-.01-.058-.023-.087-.035s-.058-.023-.089-.037-.062-.031-.093-.047-.064-.031-.1-.05-.065-.041-.1-.061-.068-.041-.1-.066-.066-.051-.1-.077-.07-.053-.106-.083-.066-.063-.1-.094-.071-.065-.107-.1-.065-.076-.1-.114-.07-.079-.1-.124S9.43,4.656,9.4,4.61s-.067-.093-.1-.146S9.24,4.356,9.211,4.3s-.062-.108-.092-.169S9.061,4,9.032,3.93s-.053-.117-.076-.181c-.03-.081-.056-.173-.084-.26-.019-.061-.04-.116-.058-.18q-.065-.235-.115-.5a.378.378,0,0,0-.528-.274L6.9,3.113h0L4.007,4.426a.378.378,0,0,0-.164.144L.057,10.626a.378.378,0,0,0,.094.5L3.179,13.4a.378.378,0,0,0,.514-.056L5.3,11.471V22.939a.378.378,0,0,0,.378.378H17.032a.378.378,0,0,0,.378-.378V11.629l1.206,1.688a.379.379,0,0,0,.518.1l3.406-2.271A.378.378,0,0,0,22.652,10.626Zm-8-7.21.414.188.287.131.766,2.171H13.124A4.3,4.3,0,0,0,14.651,3.416Zm-7.294.319.7-.319c.046.177.1.342.152.5.019.053.039.1.059.152.039.1.078.2.119.292.025.055.051.106.077.158.04.08.081.159.123.232q.043.075.087.146.064.1.131.2c.03.043.061.086.092.127.047.061.095.117.142.173.03.034.059.07.089.1.057.061.115.117.173.171.026.025.052.051.079.074.069.06.137.116.206.167h-3Zm9.3,18.825H6.056V21.425h10.6Zm0-1.892H6.056v-.378h10.6ZM19.02,12.58l-1.68-2.351a.378.378,0,0,0-.686.22v9.084H6.056V10.448A.378.378,0,0,0,5.39,10.2L3.35,12.582.883,10.733l3.54-5.665,1.977-.9L5.7,6.159a.379.379,0,0,0,.357.5h10.6a.379.379,0,0,0,.357-.5l-.7-1.989,1.977.9,3.53,5.648Z" transform="translate(0 -2.5)" fill="#787878"/>
  </g>
</svg>
