<svg xmlns="http://www.w3.org/2000/svg" width="17.006" height="16.25" viewBox="0 0 17.006 16.25"><defs><style>.a,.b,.d{fill:#787878;}.c,.d{stroke:none;}</style></defs><g transform="translate(13632 21420.001)"><g transform="translate(-13632 -21420)"><path class="a" d="M18.093,6.7V1.3H7.263V14.838h4.982a.65.65,0,1,1,0,1.3H6.613a.652.652,0,0,1-.65-.65V.65A.652.652,0,0,1,6.613,0h12.13a.652.652,0,0,1,.65.65V6.7a.65.65,0,1,1-1.3,0ZM15.71,2.676H9.862a.65.65,0,1,0,0,1.3H15.71a.65.65,0,0,0,0-1.3Z" transform="translate(-5.963)"/><path class="a" d="M18.093,6.7V1.3H7.263V14.838h4.982a.65.65,0,1,1,0,1.3H6.613a.652.652,0,0,1-.65-.65V.65A.652.652,0,0,1,6.613,0h12.13a.652.652,0,0,1,.65.65V6.7a.65.65,0,1,1-1.3,0ZM15.71,2.676H9.862a.65.65,0,1,0,0,1.3H15.71a.65.65,0,0,0,0-1.3Z" transform="translate(-5.963)"/><path class="a" d="M99.878,71.986H94.03a.65.65,0,0,0,0,1.3h5.848a.65.65,0,1,0,0-1.3Z" transform="translate(-90.131 -66.411)"/></g><g transform="translate(-13625.273 -21412.9)"><g class="b" transform="translate(0 -21.231)"><path class="c" d="M 6.754673957824707 27.85660552978516 L 2.074904203414917 27.85660552978516 C 1.887074112892151 27.85660552978516 1.721214056015015 27.74841499328613 1.642054080963135 27.57425498962402 L -0.06146590784192085 23.65738487243652 C -0.1236859112977982 23.5096549987793 -0.109005905687809 23.34240531921387 -0.02264590747654438 23.20893478393555 C 0.06385409086942673 23.07526588439941 0.211414098739624 22.99546432495117 0.372064083814621 22.99546432495117 L 5.542774200439453 22.99546432495117 C 5.803524017333984 22.99546432495117 6.015664100646973 23.20760536193848 6.015664100646973 23.46835517883301 C 6.015664100646973 23.72910499572754 5.803524017333984 23.94124412536621 5.542774200439453 23.94124412536621 L 1.096385717391968 23.94124412536621 L 2.389017343521118 26.91082572937012 L 6.398906707763672 26.91082572937012 L 7.901244163513184 21.47781562805176 C 7.956124305725098 21.27389526367188 8.144054412841797 21.13100433349609 8.358074188232422 21.13100433349609 L 9.706704139709473 21.13100433349609 C 9.967464447021484 21.13100433349609 10.17960453033447 21.3431453704834 10.17960453033447 21.60389518737793 C 10.17960453033447 21.86464500427246 9.967464447021484 22.07678413391113 9.706704139709473 22.07678413391113 L 8.713861465454102 22.07678413391113 L 7.211503982543945 27.50979423522949 C 7.156614303588867 27.71372413635254 6.968684196472168 27.85660552978516 6.754673957824707 27.85660552978516 Z"/><path class="d" d="M 8.358074188232422 21.23100471496582 C 8.190274238586426 21.23100471496582 8.04111385345459 21.34287452697754 7.997624397277832 21.50446510314941 L 6.475004196166992 27.01082420349121 L 2.323483943939209 27.01082420349121 L 0.9437942504882813 23.84124565124512 L 5.542774200439453 23.84124565124512 C 5.747864246368408 23.84124565124512 5.915664196014404 23.6734447479248 5.915664196014404 23.46835517883301 C 5.915664196014404 23.26325416564941 5.747864246368408 23.0954647064209 5.542774200439453 23.0954647064209 L 0.3720636367797852 23.0954647064209 C 0.2477636337280273 23.0954647064209 0.1296844482421875 23.1576042175293 0.06131362915039063 23.26325416564941 C -0.007056236267089844 23.36892509460449 -0.01949596405029297 23.49943542480469 0.03023433685302734 23.61750411987305 L 1.733094215393066 27.53287506103516 C 1.795233726501465 27.66958427429199 1.92574405670166 27.75660514831543 2.074903964996338 27.75660514831543 L 6.754673957824707 27.75660514831543 C 6.922464370727539 27.75660514831543 7.071623802185059 27.64473533630371 7.115123748779297 27.48314476013184 L 8.637763977050781 21.97678565979004 L 9.706704139709473 21.97678565979004 C 9.91179370880127 21.97678565979004 10.07960414886475 21.80898475646973 10.07960414886475 21.60389518737793 C 10.07960414886475 21.39880561828613 9.91179370880127 21.23100471496582 9.706704139709473 21.23100471496582 L 8.358074188232422 21.23100471496582 M 8.358074188232422 21.031005859375 L 9.706704139709473 21.031005859375 C 10.02260398864746 21.031005859375 10.27960395812988 21.28800582885742 10.27960395812988 21.60389518737793 C 10.27960395812988 21.91978454589844 10.02260398864746 22.17678451538086 9.706704139709473 22.17678451538086 L 8.789968490600586 22.17678451538086 L 7.307893753051758 27.53644561767578 C 7.241444110870361 27.78328514099121 7.01380443572998 27.95660400390625 6.754673957824707 27.95660400390625 L 2.074903964996338 27.95660400390625 C 1.847353935241699 27.95660400390625 1.646614074707031 27.82595443725586 1.551024436950684 27.61563491821289 L -0.1531763076782227 23.69727516174316 C -0.2287063598632813 23.51796531677246 -0.2109556198120117 23.31589508056641 -0.1066055297851563 23.15461540222168 C -0.001585960388183594 22.99233436584473 0.1773443222045898 22.89546585083008 0.3720636367797852 22.89546585083008 L 5.542774200439453 22.89546585083008 C 5.858664035797119 22.89546585083008 6.115664005279541 23.1524658203125 6.115664005279541 23.46835517883301 C 6.115664005279541 23.78424453735352 5.858664035797119 24.04124450683594 5.542774200439453 24.04124450683594 L 1.248977661132813 24.04124450683594 L 2.454550743103027 26.81082534790039 L 6.322799682617188 26.81082534790039 L 7.804854393005371 21.45116424560547 C 7.871284008026123 21.20432472229004 8.098923683166504 21.031005859375 8.358074188232422 21.031005859375 Z"/></g><path class="a" d="M97.745,362.922a.845.845,0,1,1,.845-.845A.846.846,0,0,1,97.745,362.922Z" transform="translate(-90.636 -353.774)"/><path class="a" d="M338.776,362.837h-.062a.874.874,0,1,1,.062,0Z" transform="translate(-336.949 -353.689)"/></g></g></svg>