<svg id="stewardAllocation" xmlns="http://www.w3.org/2000/svg" width="24.15" height="16.445" viewBox="0 0 24.15 16.445">
  <path id="Path_354" data-name="Path 354" d="M23.955,78.816a1.1,1.1,0,0,0-.579-1.671l-9.948-3.087a4.545,4.545,0,0,0-2.706,0L.773,77.145a1.1,1.1,0,0,0-.579,1.671L4.171,84.6v1.417C3.063,86.456,2.5,86.99,2.5,87.61c0,.834,1,1.507,2.985,2a28.43,28.43,0,0,0,6.587.684,28.43,28.43,0,0,0,6.587-.684c1.981-.5,2.985-1.169,2.985-2,0-.62-.561-1.154-1.669-1.591V84.6Zm-4.76,6.942H4.954v-.887H19.195v.887Zm-8.539-6.281-.582-.951,1.115.029a.394.394,0,0,0,.354-.2l.533-.98.533.98a.392.392,0,0,0,.354.2l1.115-.029-.582.951a.391.391,0,0,0,0,.408l.582.951-1.115-.029a.392.392,0,0,0-.354.2l-.533.98-.533-.98a.391.391,0,0,0-.344-.2h-.01l-1.115.029.582-.951A.391.391,0,0,0,10.655,79.477Zm12.488-1.585a.316.316,0,0,1,.167.48l-3.93,5.716H12.465V82.91L13.18,81.6l1.595.041a.391.391,0,0,0,.344-.6l-.833-1.361.833-1.361a.391.391,0,0,0-.344-.6l-1.595.041-.714-1.314v-1.8a3.8,3.8,0,0,1,.73.15ZM.8,78.09a.313.313,0,0,1,.2-.2L10.953,74.8a3.8,3.8,0,0,1,.73-.15v1.8l-.714,1.314-1.595-.041a.391.391,0,0,0-.344.6l.833,1.361L9.03,81.042a.391.391,0,0,0,.344.6l1.595-.041.714,1.314v1.179H4.768L.838,78.373A.313.313,0,0,1,.8,78.09Zm20.064,9.52c0,.153-.2.361-.529.557a7.35,7.35,0,0,1-1.863.687,27.639,27.639,0,0,1-6.4.661,27.639,27.639,0,0,1-6.4-.661c-1.893-.473-2.393-1.02-2.393-1.243,0-.262.547-.693,1.766-1.069H19.1C20.317,86.917,20.864,87.348,20.864,87.61Z" transform="translate(0.001 -73.852)" fill="#787878"/>
  <path id="Path_355" data-name="Path 355" d="M217.734,173.618a.756.756,0,1,0-.756-.756A.757.757,0,0,0,217.734,173.618Z" transform="translate(-205.66 -166.98)" fill="#787878"/>
</svg>
