<svg xmlns="http://www.w3.org/2000/svg" width="16.753" height="16.137" viewBox="0 0 16.753 16.137"><defs><style>.a,.b{fill:#787878;}.b{stroke:#707070;stroke-width:0.5px;}</style></defs><g transform="translate(13632 21420.001)"><g transform="translate(-13632 -21420)"><path class="a" d="M18.093,6.7V1.3H7.263V14.838h4.982a.65.65,0,1,1,0,1.3H6.613a.652.652,0,0,1-.65-.65V.65A.652.652,0,0,1,6.613,0h12.13a.652.652,0,0,1,.65.65V6.7a.65.65,0,1,1-1.3,0ZM15.71,2.676H9.862a.65.65,0,1,0,0,1.3H15.71a.65.65,0,0,0,0-1.3Z" transform="translate(-5.963)"/><path class="a" d="M18.093,6.7V1.3H7.263V14.838h4.982a.65.65,0,1,1,0,1.3H6.613a.652.652,0,0,1-.65-.65V.65A.652.652,0,0,1,6.613,0h12.13a.652.652,0,0,1,.65.65V6.7a.65.65,0,1,1-1.3,0ZM15.71,2.676H9.862a.65.65,0,1,0,0,1.3H15.71a.65.65,0,0,0,0-1.3Z" transform="translate(-5.963)"/><path class="a" d="M99.878,71.986H94.03a.65.65,0,0,0,0,1.3h5.848a.65.65,0,1,0,0-1.3Z" transform="translate(-90.131 -66.411)"/></g><g transform="translate(-13624.585 -21411.324)"><path class="b" d="M9.011,75.719a.413.413,0,0,0-.218-.629L5.051,73.929a1.71,1.71,0,0,0-1.018,0L.29,75.09a.413.413,0,0,0-.218.629l1.5,2.176v.533c-.417.165-.628.365-.628.6,0,.314.378.567,1.123.753a10.7,10.7,0,0,0,2.478.257,10.7,10.7,0,0,0,2.478-.257c.745-.186,1.123-.44,1.123-.753,0-.233-.211-.434-.628-.6V77.9ZM7.22,78.331H1.863V78H7.22v.334ZM4.008,75.968l-.219-.358.419.011a.148.148,0,0,0,.133-.077l.2-.369.2.369a.148.148,0,0,0,.133.077l.419-.011-.219.358a.147.147,0,0,0,0,.154l.219.358-.419-.011a.148.148,0,0,0-.133.077l-.2.369-.2-.369a.147.147,0,0,0-.129-.077h0l-.419.011.219-.358A.147.147,0,0,0,4.008,75.968Zm4.7-.6a.119.119,0,0,1,.063.181L7.29,77.7h-2.6v-.443l.269-.494.6.015a.147.147,0,0,0,.129-.224l-.313-.512.313-.512a.147.147,0,0,0-.129-.224l-.6.015-.269-.494v-.676a1.429,1.429,0,0,1,.275.056ZM.3,75.446a.118.118,0,0,1,.077-.075L4.12,74.21a1.428,1.428,0,0,1,.275-.056v.676l-.269.494-.6-.015a.147.147,0,0,0-.129.224l.313.512-.313.512a.147.147,0,0,0,.129.224l.6-.015.269.494V77.7h-2.6L.315,75.552A.118.118,0,0,1,.3,75.446Zm7.547,3.581c0,.057-.074.136-.2.209a2.765,2.765,0,0,1-.7.258,10.4,10.4,0,0,1-2.406.249,10.4,10.4,0,0,1-2.406-.249c-.712-.178-.9-.384-.9-.468s.206-.261.665-.4H7.184C7.642,78.767,7.848,78.928,7.848,79.027Z" transform="translate(0.001 -73.852)"/><path class="b" d="M217.263,172.674a.285.285,0,1,0-.285-.285A.285.285,0,0,0,217.263,172.674Z" transform="translate(-212.72 -170.177)"/></g></g></svg>