<svg xmlns="http://www.w3.org/2000/svg" width="20.926" height="20.415" viewBox="0 0 20.926 20.415">
  <g id="zoneAllocation" transform="translate(0.158 0.1)">
    <path id="Path_352" data-name="Path 352" d="M26.219,17.145a2.281,2.281,0,1,0-2.281-2.281A2.283,2.283,0,0,0,26.219,17.145Zm0-3.91a1.629,1.629,0,1,1-1.629,1.629A1.631,1.631,0,0,1,26.219,13.236Z" transform="translate(-15.795 -8.463)" fill="#787878" stroke="#707070" stroke-width="0.3"/>
    <path id="Path_353" data-name="Path 353" d="M16.919,13.051H14.506l1.027-1.482a7.362,7.362,0,0,0-.6-9.091,6.461,6.461,0,0,0-9.137,0,7.359,7.359,0,0,0-.608,9.081l1.034,1.493H3.69L0,20.8H20.609ZM5.734,11.164a6.649,6.649,0,0,1,.538-8.21,5.787,5.787,0,0,1,8.184,0,6.651,6.651,0,0,1,.53,8.221L10.364,17.85l-3.323-4.8h0ZM4.116,13.725H6.688l3.676,5.309,3.676-5.309h2.453l3.048,6.4H1.067Z" transform="translate(0 -0.585)" fill="#787878" stroke="#707070" stroke-width="0.2"/>
  </g>
</svg>
