<svg id="briefingDocuments" xmlns="http://www.w3.org/2000/svg" width="15.89" height="19.077" viewBox="0 0 15.89 19.077">
  <path id="Path_338" data-name="Path 338" d="M140.822.745h.01a.373.373,0,1,0,0-.745h-.01a.373.373,0,1,0,0,.745Zm0,0" transform="translate(-135.216)" fill="#787878"/>
  <path id="Path_339" data-name="Path 339" d="M14.772,0H7.105a.373.373,0,0,0,0,.745h7.666a.373.373,0,0,1,.373.373V14.771a.373.373,0,0,1-.373.373H13.256V6.853s0-.008,0-.012,0-.009,0-.013a.387.387,0,0,0-.006-.045v0a.356.356,0,0,0-.013-.048l0-.009a.382.382,0,0,0-.019-.042v0a.381.381,0,0,0-.026-.041l-.007-.009a.39.39,0,0,0-.032-.037h0L9.854,3.3h0a.386.386,0,0,0-.037-.032l-.009-.007a.377.377,0,0,0-.041-.026l0,0a.354.354,0,0,0-.042-.018l-.009,0A.4.4,0,0,0,9.664,3.2h0a.384.384,0,0,0-.045-.006H3.379V1.118A.373.373,0,0,1,3.752.745h.784a.373.373,0,0,0,0-.745H3.752A1.119,1.119,0,0,0,2.634,1.118v2.07H1.118A1.119,1.119,0,0,0,0,4.306V17.959a1.119,1.119,0,0,0,1.118,1.118h11.02a1.119,1.119,0,0,0,1.118-1.118v-2.07h1.516a1.119,1.119,0,0,0,1.118-1.118V1.118A1.119,1.119,0,0,0,14.772,0ZM9.964,4.46l2.02,2.02H10.336a.373.373,0,0,1-.373-.373Zm2.547,13.5a.373.373,0,0,1-.373.373H1.118a.373.373,0,0,1-.373-.373V4.306a.373.373,0,0,1,.373-.373h8.1V6.108a1.119,1.119,0,0,0,1.118,1.118H12.51Zm0,0" transform="translate(0)" fill="#787878"/>
  <path id="Path_340" data-name="Path 340" d="M69.377,233.206l-.73.73-.233-.233a.373.373,0,0,0-.527.527l.5.5a.373.373,0,0,0,.527,0l.994-.994a.373.373,0,1,0-.527-.527Zm0,0" transform="translate(-65.252 -224.412)" fill="#787878"/>
  <path id="Path_341" data-name="Path 341" d="M69.377,313.206l-.73.73-.233-.233a.373.373,0,1,0-.527.527l.5.5a.372.372,0,0,0,.527,0l.994-.994a.373.373,0,1,0-.527-.527Zm0,0" transform="translate(-65.252 -301.431)" fill="#787878"/>
  <path id="Path_342" data-name="Path 342" d="M69.377,393.211l-.73.73-.233-.233a.373.373,0,0,0-.527.527l.5.5a.372.372,0,0,0,.527,0l.994-.994a.373.373,0,1,0-.527-.527Zm0,0" transform="translate(-65.252 -378.454)" fill="#787878"/>
  <path id="Path_343" data-name="Path 343" d="M154.2,247.175h4.253a.373.373,0,1,0,0-.745H154.2a.373.373,0,1,0,0,.745Zm0,0" transform="translate(-148.093 -237.248)" fill="#787878"/>
  <path id="Path_344" data-name="Path 344" d="M154.2,327.179h4.253a.373.373,0,1,0,0-.745H154.2a.373.373,0,1,0,0,.745Zm0,0" transform="translate(-148.093 -314.271)" fill="#787878"/>
  <path id="Path_345" data-name="Path 345" d="M158.823,406.811a.373.373,0,0,0-.373-.373H154.2a.373.373,0,1,0,0,.745h4.253A.373.373,0,0,0,158.823,406.811Zm0,0" transform="translate(-148.093 -391.294)" fill="#787878"/>
  <path id="Path_346" data-name="Path 346" d="M68.15,174.667h1.49a.373.373,0,1,0,0-.745H68.15a.373.373,0,1,0,0,.745Zm0,0" transform="translate(-65.252 -167.442)" fill="#787878"/>
  <path id="Path_347" data-name="Path 347" d="M154.2,174.667h1.49a.373.373,0,1,0,0-.745H154.2a.373.373,0,1,0,0,.745Zm0,0" transform="translate(-148.093 -167.442)" fill="#787878"/>
  <path id="Path_348" data-name="Path 348" d="M236.135,462h-.009a.373.373,0,0,0,0,.745h.009a.373.373,0,0,0,0-.745Zm0,0" transform="translate(-226.969 -444.786)" fill="#787878"/>
  <path id="Path_349" data-name="Path 349" d="M266.62,462h-1.529a.373.373,0,0,0,0,.745h1.529a.373.373,0,0,0,0-.745Zm0,0" transform="translate(-254.855 -444.782)" fill="#787878"/>
</svg>
