<svg id="eventCheckList" xmlns="http://www.w3.org/2000/svg" width="16.88" height="22.51" viewBox="0 0 16.88 22.51">
  <path id="Path_316" data-name="Path 316" d="M65.449,84.407A1.407,1.407,0,0,1,64.042,83V66.12Z" transform="translate(-64.042 -61.896)" fill="#787878"/>
  <g id="Group_534" data-name="Group 534" transform="translate(2.812 8.443)">
    <path id="Path_318" data-name="Path 318" d="M130.133,196.285a.7.7,0,0,1-.5-.205l-1.407-1.407a.7.7,0,1,1,1-1l.909.91,2.315-2.317a.7.7,0,0,1,1,1h0l-2.813,2.813A.7.7,0,0,1,130.133,196.285Z" transform="translate(-128.022 -192.064)" fill="#787878"/>
    <path id="Path_319" data-name="Path 319" d="M130.133,324.285a.7.7,0,0,1-.5-.205l-1.407-1.407a.7.7,0,1,1,1-1l.909.91,2.315-2.317a.7.7,0,1,1,1,1l-2.813,2.813A.7.7,0,0,1,130.133,324.285Z" transform="translate(-128.022 -314.437)" fill="#787878"/>
  </g>
  <path id="Path_320" data-name="Path 320" d="M291.559,225.491h-2.813a.7.7,0,0,1,0-1.407h2.813a.7.7,0,1,1,0,1.407Z" transform="translate(-278.195 -214.234)" fill="#787878"/>
  <path id="Path_321" data-name="Path 321" d="M291.559,353.491h-2.813a.7.7,0,0,1,0-1.407h2.813a.7.7,0,1,1,0,1.407Z" transform="translate(-278.195 -336.607)" fill="#787878"/>
  <path id="Path_322" data-name="Path 322" d="M79.515,83.777H65.449a1.407,1.407,0,0,1-1.407-1.407V65.491a1.407,1.407,0,0,1,1.407-1.407h3.517v1.407H65.449v16.88H79.515V65.491H76V64.084h3.517a1.407,1.407,0,0,1,1.407,1.407v16.88A1.407,1.407,0,0,1,79.515,83.777Z" transform="translate(-64.042 -61.267)" fill="#787878"/>
  <path id="Path_323" data-name="Path 323" d="M167.779,5.63h-7.033a.7.7,0,0,1-.7-.7V2.113a.7.7,0,0,1,.7-.7h1.526a2.11,2.11,0,0,1,3.981,0h1.526a.7.7,0,0,1,.7.7V4.927A.7.7,0,0,1,167.779,5.63Zm-6.33-1.407h5.627V2.817h-1.407a.7.7,0,0,1-.7-.7.7.7,0,0,0-1.407,0,.7.7,0,0,1-.7.7h-1.407V4.223Z" transform="translate(-155.822 0)" fill="#787878"/>
</svg>
