<svg id="teamAllocation" xmlns="http://www.w3.org/2000/svg" width="19.29" height="21.517" viewBox="0 0 19.29 21.517">
  <path id="Path_356" data-name="Path 356" d="M43.248,2.2a.349.349,0,0,0-.188-.3A22.018,22.018,0,0,0,33.609,0h0a22.017,22.017,0,0,0-9.451,1.9.349.349,0,0,0-.188.3A26.8,26.8,0,0,0,26.175,13.47a16.173,16.173,0,0,0,7.242,7.992.35.35,0,0,0,.188.055h0a.348.348,0,0,0,.055,0l.018,0,.035-.009.02-.007.03-.014.018-.01.011-.006a16.173,16.173,0,0,0,7.242-7.992A26.8,26.8,0,0,0,43.248,2.2ZM40.4,13.182a15.54,15.54,0,0,1-6.8,7.594,15.541,15.541,0,0,1-6.8-7.594A26.04,26.04,0,0,1,24.66,2.429,22.346,22.346,0,0,1,33.607.7a22.409,22.409,0,0,1,8.947,1.732A26.039,26.039,0,0,1,40.4,13.182Z" transform="translate(-23.962 0)" fill="#787878"/>
  <path id="Path_357" data-name="Path 357" d="M74.784,33.6a27.385,27.385,0,0,0-18.426,0,.405.405,0,0,0-.26.387,29.96,29.96,0,0,0,2.187,10.7,17.333,17.333,0,0,0,7.081,8.573.405.405,0,0,0,.41,0,17.333,17.333,0,0,0,7.081-8.574,29.96,29.96,0,0,0,2.187-10.7A.4.4,0,0,0,74.784,33.6Zm-17.1,6.559h1V43.5A27.016,27.016,0,0,1,57.685,40.157Zm3.162,0V47.8A19.92,19.92,0,0,1,59.5,45.4V40.157Zm.81,8.762V40.157h1.35V50.431A15.683,15.683,0,0,1,61.657,48.919Zm3.511-8.762V52.179a14.057,14.057,0,0,1-1.35-1.008V40.157Zm2.16,0V51.167a14.056,14.056,0,0,1-1.35,1.009V40.157Zm.81,10.27V40.157h1.35v8.757A15.691,15.691,0,0,1,68.139,50.427Zm3.511-10.27v5.238a19.939,19.939,0,0,1-1.35,2.394V40.157Zm.81,3.331V40.157h1A27.018,27.018,0,0,1,72.459,43.487Zm1.173-4.141H57.509a30.568,30.568,0,0,1-.594-5.092,26.684,26.684,0,0,1,17.312,0A30.577,30.577,0,0,1,73.633,39.346Z" transform="translate(-55.926 -32.001)" fill="#787878"/>
  <path id="Path_358" data-name="Path 358" d="M217.38,128.1a.349.349,0,0,0-.493,0l-.125.125-.125-.125a.349.349,0,1,0-.493.493l.125.125-.125.125a.349.349,0,0,0,.493.493l.125-.125.125.125a.349.349,0,1,0,.493-.493l-.125-.125.125-.125A.349.349,0,0,0,217.38,128.1Z" transform="translate(-208.937 -123.691)" fill="#787878"/>
  <path id="Path_359" data-name="Path 359" d="M216.636,64.1a.349.349,0,0,0-.493.493l.125.125-.125.125a.349.349,0,0,0,.493.493l.125-.125.125.125a.349.349,0,1,0,.493-.493l-.125-.125.125-.125a.349.349,0,0,0-.493-.493l-.125.125Z" transform="translate(-212.58 -59.75)" fill="#787878"/>
  <path id="Path_361" data-name="Path 361" d="M296.143,65.34a.349.349,0,0,0,.493,0l.125-.125.125.125a.349.349,0,0,0,.493-.493l-.125-.125.125-.125a.349.349,0,0,0-.493-.493l-.125.125-.125-.125a.349.349,0,1,0-.493.493l.125.125-.125.125A.349.349,0,0,0,296.143,65.34Z" transform="translate(-285.219 -59.752)" fill="#787878"/>
  <path id="Path_365" data-name="Path 365" d="M336.143,97.34a.349.349,0,0,0,.493,0l.125-.125.125.125a.349.349,0,0,0,.493-.493l-.125-.125.125-.125a.349.349,0,0,0-.493-.493l-.125.125-.125-.125a.349.349,0,1,0-.493.493l.125.125-.125.125A.349.349,0,0,0,336.143,97.34Z" transform="translate(-321.538 -91.723)" fill="#787878"/>
</svg>
